<svg width="80" height="112" viewBox="0 0 80 112" fill="none" xmlns="http://www.w3.org/2000/svg">
<path d="M65.3001 0L53.1877 29.9352H28.0312L39.2119 0H65.3001Z" fill="#AB322F"/>
<path d="M54.3478 24.7441H27.1061C25.3172 24.7441 23.8672 26.2065 23.8672 28.0107V45.5063H57.5872V28.0107C57.5867 26.2061 56.1363 24.7441 54.3478 24.7441ZM55.1907 31.1539H25.6415V29.8167C25.6415 28.362 26.8108 27.1826 28.2533 27.1826H52.5784C54.0208 27.1826 55.1902 28.362 55.1902 29.8167V31.1539H55.1907Z" fill="#F28F0E"/>
<path d="M16.3203 0L28.0339 29.9352H53.1903L41.7436 0H16.3203Z" fill="#FA352C"/>
<path d="M33.8632 29.9352L21.0096 0H19.5547L32.4087 29.9352H33.8632Z" fill="#FCE0E0"/>
<path d="M39.3085 29.9352L26.4549 0H25L37.854 29.9352H39.3085Z" fill="#FCE0E0"/>
<path d="M45.3162 29.9352L32.4623 0H31.0078L43.8618 29.9352H45.3162Z" fill="#FCE0E0"/>
<path d="M50.6365 29.9352L37.7826 0H36.3281L49.1821 29.9352H50.6365Z" fill="#FCE0E0"/>
<path d="M76.5533 71.6586C76.5533 51.2961 60.1858 34.789 39.9954 34.789C19.805 34.789 3.4375 51.2961 3.4375 71.6586C3.4375 92.0212 19.805 108.528 39.9954 108.528C60.1858 108.528 76.5533 92.0212 76.5533 71.6586Z" fill="#FFB10F"/>
<path d="M69.4162 49.7148C73.1039 55.4719 75.2447 62.3312 75.2447 69.6951C75.2447 90.0585 58.8765 106.566 38.6861 106.566C26.6368 106.566 15.9498 100.688 9.28906 91.6191C15.7994 101.782 27.1305 108.51 40.0205 108.51C60.2113 108.51 76.5791 92.0022 76.5791 71.6388C76.5786 63.4275 73.917 55.8429 69.4162 49.7148Z" fill="#FF930F"/>
<path d="M66.6667 85.1064C74.0305 70.2532 68.0609 52.1919 53.3333 44.7654C38.6057 37.3388 20.6971 43.3592 13.3334 58.2124C5.96956 73.0655 11.9391 91.1269 26.6667 98.5535C41.3942 105.98 59.3029 99.9596 66.6667 85.1064Z" fill="#FFDC01"/>
<path d="M36.3693 92.0965C37.5347 93.0215 37.8451 94.5579 37.8451 94.5579C37.8451 94.5579 36.2666 94.5951 35.1012 93.6701C33.9359 92.7456 33.625 91.2092 33.625 91.2092C33.625 91.2092 35.2035 91.172 36.3693 92.0965Z" fill="#FFF375"/>
<path d="M34.9523 94.5C36.3592 94.007 37.8377 94.5578 37.8377 94.5578C37.8377 94.5578 37.0348 95.9072 35.6275 96.4002C34.2206 96.8932 32.7422 96.3423 32.7422 96.3423C32.7422 96.3423 33.545 94.993 34.9523 94.5Z" fill="#FFF375"/>
<path d="M31.8215 90.8529C32.848 91.9281 32.9428 93.4923 32.9428 93.4923C32.9428 93.4923 31.374 93.3133 30.3479 92.2381C29.3217 91.1628 29.2266 89.5986 29.2266 89.5986C29.2266 89.5986 30.7953 89.7776 31.8215 90.8529Z" fill="#FFF375"/>
<path d="M30.0926 93.0411C31.5546 92.745 32.9427 93.4923 32.9427 93.4923C32.9427 93.4923 31.9602 94.7192 30.4982 95.0153C29.0362 95.3113 27.6484 94.564 27.6484 94.564C27.6484 94.564 28.6305 93.3367 30.0926 93.0411Z" fill="#FFF375"/>
<path d="M28.2413 89.0658C29.0829 90.2886 28.9268 91.8483 28.9268 91.8483C28.9268 91.8483 27.4065 91.4253 26.5645 90.2025C25.7225 88.9796 25.8786 87.4199 25.8786 87.4199C25.8786 87.4199 27.3998 87.8429 28.2413 89.0658Z" fill="#FFF375"/>
<path d="M26.1802 90.956C27.6711 90.8937 28.9223 91.8496 28.9223 91.8496C28.9223 91.8496 27.757 92.9069 26.2656 92.9693C24.7746 93.0316 23.5234 92.0757 23.5234 92.0757C23.5234 92.0757 24.6897 91.0184 26.1802 90.956Z" fill="#FFF375"/>
<path d="M24.8883 86.3454C25.4056 87.7343 24.8732 89.2096 24.8732 89.2096C24.8732 89.2096 23.5015 88.4331 22.9842 87.0439C22.4664 85.6546 22.9988 84.1797 22.9988 84.1797C22.9988 84.1797 24.3706 84.9562 24.8883 86.3454Z" fill="#FFF375"/>
<path d="M22.4366 87.6818C23.8982 87.9802 24.8785 89.2093 24.8785 89.2093C24.8785 89.2093 23.489 89.9539 22.0274 89.6556C20.5658 89.3573 19.5859 88.1282 19.5859 88.1282C19.5859 88.1282 20.975 87.3835 22.4366 87.6818Z" fill="#FFF375"/>
<path d="M22.3679 83.1941C22.5423 84.6646 21.6745 85.9745 21.6745 85.9745C21.6745 85.9745 20.5252 84.8996 20.3513 83.4287C20.1769 81.9578 21.0447 80.6484 21.0447 80.6484C21.0447 80.6484 22.1945 81.7232 22.3679 83.1941Z" fill="#FFF375"/>
<path d="M19.666 83.9207C21.0159 84.5519 21.6773 85.9748 21.6773 85.9748C21.6773 85.9748 20.1503 86.3749 18.8004 85.7433C17.4509 85.1126 16.7891 83.6893 16.7891 83.6893C16.7891 83.6893 18.3165 83.2896 19.666 83.9207Z" fill="#FFF375"/>
<path d="M20.2069 79.2258C20.0828 80.7012 18.9703 81.8141 18.9703 81.8141C18.9703 81.8141 18.0594 80.5339 18.1835 79.0581C18.3076 77.5827 19.4196 76.4697 19.4196 76.4697C19.4196 76.4697 20.331 77.75 20.2069 79.2258Z" fill="#FFF375"/>
<path d="M17.4056 79.4044C18.6021 80.2895 18.9655 81.8147 18.9655 81.8147C18.9655 81.8147 17.3892 81.9053 16.1927 81.0202C14.9966 80.1352 14.6328 78.61 14.6328 78.61C14.6328 78.61 16.2092 78.5198 17.4056 79.4044Z" fill="#FFF375"/>
<path d="M19.0892 75.4426C18.7311 76.8803 17.4555 77.8039 17.4555 77.8039C17.4555 77.8039 16.7603 76.3967 17.1179 74.959C17.4764 73.5217 18.7516 72.5977 18.7516 72.5977C18.7516 72.5977 19.4468 74.0048 19.0892 75.4426Z" fill="#FFF375"/>
<path d="M16.2989 75.1797C17.3393 76.2414 17.4549 77.8043 17.4549 77.8043C17.4549 77.8043 15.8839 77.646 14.8435 76.5846C13.8031 75.5233 13.6875 73.96 13.6875 73.96C13.6875 73.96 15.2585 74.1179 16.2989 75.1797Z" fill="#FFF375"/>
<path d="M18.9744 71.2271C18.2761 72.5356 16.8123 73.1241 16.8123 73.1241C16.8123 73.1241 16.4823 71.5913 17.1806 70.2832C17.8794 68.9747 19.3427 68.3857 19.3427 68.3857C19.3427 68.3857 19.6736 69.9186 18.9744 71.2271Z" fill="#FFF375"/>
<path d="M16.3293 70.2991C17.0788 71.5794 16.8083 73.1239 16.8083 73.1239C16.8083 73.1239 15.3232 72.5918 14.5737 71.3116C13.8242 70.0313 14.0942 68.4873 14.0942 68.4873C14.0942 68.4873 15.5794 69.0184 16.3293 70.2991Z" fill="#FFF375"/>
<path d="M19.7149 66.9708C18.7257 68.0797 17.1641 68.3107 17.1641 68.3107C17.1641 68.3107 17.2059 66.7443 18.1951 65.6354C19.1843 64.5265 20.7459 64.2959 20.7459 64.2959C20.7459 64.2959 20.7046 65.8624 19.7149 66.9708Z" fill="#FFF375"/>
<path d="M17.3671 65.4537C17.7928 66.873 17.1643 68.3112 17.1643 68.3112C17.1643 68.3112 15.8464 67.4477 15.4212 66.0284C14.9959 64.6091 15.624 63.1709 15.624 63.1709C15.624 63.1709 16.9419 64.0344 17.3671 65.4537Z" fill="#FFF375"/>
<path d="M21.2446 63.4737C20.0268 64.3295 18.4531 64.2013 18.4531 64.2013C18.4531 64.2013 18.8534 62.6855 20.0712 61.8291C21.2891 60.9732 22.8627 61.1016 22.8627 61.1016C22.8627 61.1016 22.462 62.6178 21.2446 63.4737Z" fill="#FFF375"/>
<path d="M19.3062 61.4647C19.3942 62.9428 18.4526 64.201 18.4526 64.201C18.4526 64.201 17.3678 63.0621 17.2792 61.584C17.1912 60.1059 18.1333 58.8477 18.1333 58.8477C18.1333 58.8477 19.2181 59.9866 19.3062 61.4647Z" fill="#FFF375"/>
<path d="M23.1537 60.3083C21.8149 60.9623 20.2812 60.5882 20.2812 60.5882C20.2812 60.5882 20.9186 59.1541 22.257 58.5005C23.5963 57.8469 25.1295 58.2206 25.1295 58.2206C25.1295 58.2206 24.4921 59.6543 23.1537 60.3083Z" fill="#FFF375"/>
<path d="M21.5683 58.0201C21.4197 59.4937 20.289 60.5878 20.289 60.5878C20.289 60.5878 19.3994 59.2928 19.548 57.8196C19.697 56.346 20.8277 55.252 20.8277 55.252C20.8277 55.252 21.7173 56.5466 21.5683 58.0201Z" fill="#FFF375"/>
<path d="M44.4607 91.8967C43.2949 92.8217 42.9844 94.3581 42.9844 94.3581C42.9844 94.3581 44.563 94.3953 45.7283 93.4704C46.8941 92.5454 47.2046 91.009 47.2046 91.009C47.2046 91.009 45.626 90.9722 44.4607 91.8967Z" fill="#FFF375"/>
<path d="M45.8698 94.3009C44.4629 93.8079 42.9844 94.3583 42.9844 94.3583C42.9844 94.3583 43.7872 95.7081 45.1945 96.2006C46.6014 96.6936 48.0799 96.1432 48.0799 96.1432C48.0799 96.1432 47.2771 94.7934 45.8698 94.3009Z" fill="#FFF375"/>
<path d="M48.4338 90.8529C47.4072 91.9281 47.3125 93.4923 47.3125 93.4923C47.3125 93.4923 48.8813 93.3133 49.9074 92.2381C50.9335 91.1628 51.0283 89.5986 51.0283 89.5986C51.0283 89.5986 49.4595 89.7776 48.4338 90.8529Z" fill="#FFF375"/>
<path d="M50.1627 93.0411C48.7007 92.745 47.3125 93.4923 47.3125 93.4923C47.3125 93.4923 48.295 94.7192 49.7571 95.0153C51.2191 95.3113 52.6072 94.564 52.6072 94.564C52.6072 94.564 51.6247 93.3367 50.1627 93.0411Z" fill="#FFF375"/>
<path d="M52.0094 88.9169C51.1678 90.1397 51.3239 91.6994 51.3239 91.6994C51.3239 91.6994 52.8442 91.2764 53.6862 90.0536C54.5282 88.8308 54.3721 87.2715 54.3721 87.2715C54.3721 87.2715 52.8509 87.694 52.0094 88.9169Z" fill="#FFF375"/>
<path d="M54.0624 90.8047C52.5715 90.7423 51.3203 91.6983 51.3203 91.6983C51.3203 91.6983 52.4857 92.7556 53.9771 92.8179C55.468 92.8807 56.7191 91.9243 56.7191 91.9243C56.7191 91.9243 55.5529 90.8675 54.0624 90.8047Z" fill="#FFF375"/>
<path d="M55.2419 86.2673C54.7241 87.6561 55.257 89.1315 55.257 89.1315C55.257 89.1315 56.6283 88.355 57.146 86.9658C57.6633 85.5765 57.1309 84.1016 57.1309 84.1016C57.1309 84.1016 55.7592 84.8781 55.2419 86.2673Z" fill="#FFF375"/>
<path d="M57.6993 87.6048C56.2377 87.9036 55.2578 89.1322 55.2578 89.1322C55.2578 89.1322 56.6469 89.8769 58.1084 89.5786C59.57 89.2803 60.5504 88.0516 60.5504 88.0516C60.5504 88.0516 59.1608 87.3061 57.6993 87.6048Z" fill="#FFF375"/>
<path d="M57.9059 82.9051C57.7319 84.376 58.5993 85.6858 58.5993 85.6858C58.5993 85.6858 59.7486 84.611 59.923 83.1401C60.0969 81.6692 59.2296 80.3594 59.2296 80.3594C59.2296 80.3594 58.0802 81.4342 57.9059 82.9051Z" fill="#FFF375"/>
<path d="M60.6129 83.6317C59.2634 84.2628 58.6016 85.6857 58.6016 85.6857C58.6016 85.6857 60.129 86.0854 61.4785 85.4543C62.8284 84.8231 63.4898 83.4002 63.4898 83.4002C63.4898 83.4002 61.9633 83.0005 60.6129 83.6317Z" fill="#FFF375"/>
<path d="M59.8241 79.1531C59.9482 80.6289 61.0606 81.7414 61.0606 81.7414C61.0606 81.7414 61.9716 80.4612 61.8475 78.9858C61.7234 77.5099 60.611 76.3975 60.611 76.3975C60.611 76.3975 59.7 77.6777 59.8241 79.1531Z" fill="#FFF375"/>
<path d="M62.6146 79.3312C61.4181 80.2163 61.0547 81.741 61.0547 81.741C61.0547 81.741 62.631 81.8316 63.8275 80.9466C65.0235 80.0615 65.3874 78.5368 65.3874 78.5368C65.3874 78.5368 63.8111 78.4462 62.6146 79.3312Z" fill="#FFF375"/>
<path d="M60.9384 75.3625C61.2964 76.8002 62.5721 77.7238 62.5721 77.7238C62.5721 77.7238 63.2673 76.3166 62.9097 74.8789C62.5512 73.4412 61.276 72.5176 61.276 72.5176C61.276 72.5176 60.5803 73.9248 60.9384 75.3625Z" fill="#FFF375"/>
<path d="M63.7263 75.1C62.686 76.1618 62.5703 77.7247 62.5703 77.7247C62.5703 77.7247 64.1413 77.5663 65.1817 76.5045C66.222 75.4432 66.3377 73.8799 66.3377 73.8799C66.3377 73.8799 64.7662 74.0387 63.7263 75.1Z" fill="#FFF375"/>
<path d="M61.0403 71.2876C61.7391 72.5961 63.2024 73.1847 63.2024 73.1847C63.2024 73.1847 63.5329 71.6523 62.8341 70.3438C62.1353 69.0353 60.672 68.4463 60.672 68.4463C60.672 68.4463 60.3411 69.9795 61.0403 71.2876Z" fill="#FFF375"/>
<path d="M63.675 70.3606C62.9255 71.6408 63.1959 73.1848 63.1959 73.1848C63.1959 73.1848 64.6811 72.6533 65.4306 71.3726C66.1805 70.0919 65.9101 68.5479 65.9101 68.5479C65.9101 68.5479 64.4249 69.0803 63.675 70.3606Z" fill="#FFF375"/>
<path d="M60.2493 67.0298C61.2385 68.1387 62.8002 68.3697 62.8002 68.3697C62.8002 68.3697 62.7584 66.8029 61.7696 65.6944C60.7804 64.5855 59.2188 64.3545 59.2188 64.3545C59.2188 64.3545 59.2601 65.9214 60.2493 67.0298Z" fill="#FFF375"/>
<path d="M62.6008 65.5123C62.1756 66.9316 62.8036 68.3698 62.8036 68.3698C62.8036 68.3698 64.1216 67.5063 64.5468 66.087C64.972 64.6676 64.3439 63.2295 64.3439 63.2295C64.3439 63.2295 63.0261 64.0926 62.6008 65.5123Z" fill="#FFF375"/>
<path d="M58.7744 63.5899C59.9918 64.4458 61.5654 64.3175 61.5654 64.3175C61.5654 64.3175 61.1656 62.8017 59.9473 61.9454C58.7299 61.0895 57.1562 61.2178 57.1562 61.2178C57.1562 61.2178 57.5565 62.7344 58.7744 63.5899Z" fill="#FFF375"/>
<path d="M60.7089 61.5813C60.6209 63.0594 61.5625 64.3177 61.5625 64.3177C61.5625 64.3177 62.6473 63.1787 62.7358 61.7002C62.8239 60.2221 61.8823 58.9639 61.8823 58.9639C61.8823 58.9639 60.7975 60.1028 60.7089 61.5813Z" fill="#FFF375"/>
<path d="M56.7492 60.4489C58.088 61.103 59.6217 60.7288 59.6217 60.7288C59.6217 60.7288 58.9843 59.2947 57.6459 58.6411C56.3066 57.9876 54.7734 58.3612 54.7734 58.3612C54.7734 58.3612 55.4104 59.7953 56.7492 60.4489Z" fill="#FFF375"/>
<path d="M58.3371 58.1608C58.4857 59.6344 59.6164 60.7285 59.6164 60.7285C59.6164 60.7285 60.5059 59.4334 60.3569 57.9603C60.2084 56.4867 59.0777 55.3926 59.0777 55.3926C59.0777 55.3926 58.1881 56.6872 58.3371 58.1608Z" fill="#FFF375"/>
<path d="M55.6721 55.9307C55.6111 55.9939 55.5426 56.0567 55.4621 56.1186C55.4385 56.1366 55.4149 56.1487 55.3909 56.1644C60.0705 60.1823 63.0168 65.9977 63.0168 72.4569C63.0168 84.5533 52.6839 94.3948 39.983 94.3948C27.2815 94.3948 16.9486 84.5538 16.9486 72.4569C16.9486 66.2844 19.6405 60.6995 23.9634 56.7094C23.8407 56.6731 23.7166 56.6246 23.592 56.5618C19.266 60.6089 16.5781 66.2391 16.5781 72.4564C16.5781 84.7476 27.0774 94.7474 39.983 94.7474C52.8881 94.7474 63.3873 84.7476 63.3873 72.4564C63.3873 65.9094 60.4077 60.0128 55.6721 55.9307Z" fill="#FFF375"/>
<path d="M26.2535 57.5089C24.7946 57.8207 23.3984 57.0886 23.3984 57.0886C23.3984 57.0886 24.3672 55.851 25.8257 55.5392C27.2846 55.2274 28.6807 55.9595 28.6807 55.9595C28.6807 55.9595 27.7124 57.1972 26.2535 57.5089Z" fill="#FFF375"/>
<path d="M25.273 54.9062C24.7686 56.2995 23.4044 57.089 23.4044 57.089C23.4044 57.089 22.8578 55.6185 23.3622 54.2248C23.867 52.831 25.2312 52.042 25.2312 52.042C25.2312 52.042 25.7774 53.5124 25.273 54.9062Z" fill="#FFF375"/>
<path d="M53.8105 57.5089C55.2689 57.8207 56.6656 57.0886 56.6656 57.0886C56.6656 57.0886 55.6964 55.851 54.2379 55.5392C52.7795 55.2274 51.3828 55.9595 51.3828 55.9595C51.3828 55.9595 52.3516 57.1972 53.8105 57.5089Z" fill="#FFF375"/>
<path d="M54.792 54.9062C55.2968 56.2995 56.661 57.089 56.661 57.089C56.661 57.089 57.2072 55.6185 56.7028 54.2248C56.1979 52.831 54.8338 52.042 54.8338 52.042C54.8338 52.042 54.2876 53.5124 54.792 54.9062Z" fill="#FFF375"/>
<path d="M38.7076 58.4492H43.8494V83.4272H37.8185V65.1815L33.2171 68.3454L30.2891 64.0211L38.7076 58.4492Z" fill="#FFF375"/>
</svg>
