<svg width="2160" height="1046" viewBox="0 0 2160 1046" fill="none" xmlns="http://www.w3.org/2000/svg">
<rect width="2160" height="1046" fill="#001E27"/>
<rect x="76" y="32" width="172" height="172" rx="40" fill="#005E60"/>
<path d="M174.32 161.12H166.08C163.84 161.12 162.16 160.48 161.04 159.2C159.92 157.973 159.36 156.427 159.36 154.56V148.88C156.16 148.56 153.253 147.707 150.64 146.32C148.026 144.933 145.813 143.04 144 140.64C142.186 138.187 140.773 135.253 139.76 131.84C138.8 128.373 138.32 124.453 138.32 120.08C138.32 115.387 138.88 111.253 140 107.68C141.12 104.107 142.693 101.093 144.72 98.64C146.8 96.1867 149.28 94.3467 152.16 93.12C155.093 91.84 158.373 91.2 162 91.2C165.573 91.2 168.826 91.84 171.76 93.12C174.693 94.3467 177.173 96.1867 179.2 98.64C181.28 101.093 182.88 104.107 184 107.68C185.12 111.253 185.68 115.387 185.68 120.08C185.68 128.667 183.893 135.387 180.32 140.24C176.746 145.04 171.893 147.867 165.76 148.72V155.52H174.32V161.12ZM162 142.96C164.4 142.96 166.613 142.533 168.64 141.68C170.666 140.827 172.4 139.6 173.84 138C175.333 136.4 176.48 134.48 177.28 132.24C178.08 130 178.48 127.493 178.48 124.72V115.44C178.48 112.667 178.08 110.16 177.28 107.92C176.48 105.68 175.333 103.76 173.84 102.16C172.4 100.56 170.666 99.3333 168.64 98.48C166.613 97.6267 164.4 97.2 162 97.2C159.6 97.2 157.386 97.6267 155.36 98.48C153.333 99.3333 151.573 100.56 150.08 102.16C148.64 103.76 147.52 105.68 146.72 107.92C145.92 110.16 145.52 112.667 145.52 115.44V124.72C145.52 127.493 145.92 130 146.72 132.24C147.52 134.48 148.64 136.4 150.08 138C151.573 139.6 153.333 140.827 155.36 141.68C157.386 142.533 159.6 142.96 162 142.96Z" fill="white"/>
<rect x="280" y="32" width="172" height="172" rx="40" fill="#005E60"/>
<path d="M345.575 148L331.975 92.16H339.095L345.095 119.04L349.735 139.92H349.895L355.095 119.04L362.135 92.16H369.815L376.615 119.04L381.815 139.84H382.055L386.855 119.04L393.175 92.16H400.055L385.735 148H378.295L371.015 120.16L365.895 99.68H365.735L360.455 120.16L353.015 148H345.575Z" fill="white"/>
<rect x="484" y="32" width="172" height="172" rx="40" fill="#005E60"/>
<path d="M554.12 148V92.16H588.2V98.08H560.84V116.8H586.6V122.72H560.84V142.08H588.2V148H554.12Z" fill="white"/>
<rect x="688" y="32" width="172" height="172" rx="40" fill="#005E60"/>
<path d="M762.574 148H755.854V92.16H778.094C783.001 92.16 786.814 93.52 789.534 96.24C792.307 98.96 793.694 102.88 793.694 108C793.694 112.107 792.734 115.493 790.814 118.16C788.947 120.773 786.174 122.507 782.494 123.36L795.294 148H787.694L775.614 124H762.574V148ZM778.094 118.24C780.761 118.24 782.814 117.547 784.254 116.16C785.747 114.773 786.494 112.8 786.494 110.24V106.08C786.494 103.52 785.747 101.547 784.254 100.16C782.814 98.7733 780.761 98.08 778.094 98.08H762.574V118.24H778.094Z" fill="white"/>
<rect x="892" y="32" width="172" height="172" rx="40" fill="#005E60"/>
<path d="M981.349 98.08V148H974.629V98.08H956.869V92.16H999.109V98.08H981.349Z" fill="white"/>
<rect x="1096" y="32" width="172" height="172" rx="40" fill="#005E60"/>
<path d="M1178.53 148V125.92L1159.33 92.16H1167.01L1181.89 119.04H1182.13L1197.01 92.16H1204.69L1185.25 125.68V148H1178.53Z" fill="white"/>
<rect x="1300" y="32" width="172" height="172" rx="40" fill="#005E60"/>
<path d="M1372.65 92.16V126.72C1372.65 132.053 1373.64 136.107 1375.61 138.88C1377.58 141.6 1381.05 142.96 1386.01 142.96C1390.97 142.96 1394.44 141.6 1396.41 138.88C1398.38 136.107 1399.37 132.053 1399.37 126.72V92.16H1406.09V125.12C1406.09 129.173 1405.72 132.693 1404.97 135.68C1404.28 138.667 1403.13 141.147 1401.53 143.12C1399.93 145.093 1397.82 146.56 1395.21 147.52C1392.65 148.48 1389.5 148.96 1385.77 148.96C1382.04 148.96 1378.89 148.48 1376.33 147.52C1373.82 146.56 1371.8 145.093 1370.25 143.12C1368.7 141.147 1367.58 138.667 1366.89 135.68C1366.25 132.693 1365.93 129.173 1365.93 125.12V92.16H1372.65Z" fill="white"/>
<rect x="1504" y="32" width="172" height="172" rx="40" fill="#005E60"/>
<path d="M1578.78 148V142.4H1586.62V97.76H1578.78V92.16H1601.18V97.76H1593.34V142.4H1601.18V148H1578.78Z" fill="white"/>
<rect x="1708" y="32" width="172" height="172" rx="40" fill="#005E60"/>
<path d="M1794 148.96C1790.37 148.96 1787.09 148.347 1784.16 147.12C1781.28 145.84 1778.8 144 1776.72 141.6C1774.69 139.147 1773.12 136.133 1772 132.56C1770.88 128.933 1770.32 124.773 1770.32 120.08C1770.32 115.387 1770.88 111.253 1772 107.68C1773.12 104.107 1774.69 101.093 1776.72 98.64C1778.8 96.1867 1781.28 94.3467 1784.16 93.12C1787.09 91.84 1790.37 91.2 1794 91.2C1797.57 91.2 1800.83 91.84 1803.76 93.12C1806.69 94.3467 1809.17 96.1867 1811.2 98.64C1813.28 101.093 1814.88 104.107 1816 107.68C1817.12 111.253 1817.68 115.387 1817.68 120.08C1817.68 124.773 1817.12 128.933 1816 132.56C1814.88 136.133 1813.28 139.147 1811.2 141.6C1809.17 144 1806.69 145.84 1803.76 147.12C1800.83 148.347 1797.57 148.96 1794 148.96ZM1794 142.96C1796.4 142.96 1798.61 142.533 1800.64 141.68C1802.67 140.827 1804.4 139.6 1805.84 138C1807.33 136.4 1808.48 134.48 1809.28 132.24C1810.08 130 1810.48 127.493 1810.48 124.72V115.44C1810.48 112.667 1810.08 110.16 1809.28 107.92C1808.48 105.68 1807.33 103.76 1805.84 102.16C1804.4 100.56 1802.67 99.3333 1800.64 98.48C1798.61 97.6267 1796.4 97.2 1794 97.2C1791.6 97.2 1789.39 97.6267 1787.36 98.48C1785.33 99.3333 1783.57 100.56 1782.08 102.16C1780.64 103.76 1779.52 105.68 1778.72 107.92C1777.92 110.16 1777.52 112.667 1777.52 115.44V124.72C1777.52 127.493 1777.92 130 1778.72 132.24C1779.52 134.48 1780.64 136.4 1782.08 138C1783.57 139.6 1785.33 140.827 1787.36 141.68C1789.39 142.533 1791.6 142.96 1794 142.96Z" fill="white"/>
<rect x="1912" y="32" width="172" height="172" rx="40" fill="#005E60"/>
<path d="M1981.18 148V92.16H2003.42C2008.44 92.16 2012.28 93.6 2014.94 96.48C2017.66 99.3067 2019.02 103.2 2019.02 108.16C2019.02 113.12 2017.66 117.04 2014.94 119.92C2012.28 122.747 2008.44 124.16 2003.42 124.16H1987.9V148H1981.18ZM1987.9 118.24H2003.42C2006.09 118.24 2008.14 117.547 2009.58 116.16C2011.08 114.773 2011.82 112.8 2011.82 110.24V106.08C2011.82 103.52 2011.08 101.547 2009.58 100.16C2008.14 98.7733 2006.09 98.08 2003.42 98.08H1987.9V118.24Z" fill="white"/>
<rect x="178" y="236" width="172" height="172" rx="32" fill="#005E60"/>
<path d="M280.775 352L275.175 335.52H252.615L247.015 352H240.215L259.735 296.16H268.295L287.815 352H280.775ZM264.055 302.4H263.655L254.215 329.6H273.495L264.055 302.4Z" fill="white"/>
<rect x="382" y="236" width="172" height="172" rx="32" fill="#005E60"/>
<path d="M467.878 352.96C463.344 352.96 459.478 352.107 456.278 350.4C453.078 348.64 450.358 346.24 448.118 343.2L453.078 339.04C455.051 341.653 457.238 343.653 459.638 345.04C462.038 346.373 464.864 347.04 468.118 347.04C472.118 347.04 475.158 346.08 477.238 344.16C479.371 342.24 480.438 339.68 480.438 336.48C480.438 333.813 479.638 331.76 478.038 330.32C476.438 328.88 473.798 327.733 470.118 326.88L465.558 325.84C460.438 324.667 456.518 322.907 453.798 320.56C451.131 318.16 449.798 314.8 449.798 310.48C449.798 308.027 450.251 305.84 451.158 303.92C452.064 302 453.318 300.4 454.918 299.12C456.571 297.84 458.518 296.88 460.758 296.24C463.051 295.547 465.558 295.2 468.278 295.2C472.491 295.2 476.091 295.973 479.078 297.52C482.118 299.067 484.678 301.333 486.758 304.32L481.718 308C480.171 305.867 478.304 304.187 476.118 302.96C473.931 301.733 471.211 301.12 467.958 301.12C464.384 301.12 461.558 301.893 459.478 303.44C457.451 304.933 456.438 307.2 456.438 310.24C456.438 312.907 457.291 314.933 458.998 316.32C460.758 317.653 463.398 318.72 466.918 319.52L471.478 320.56C476.971 321.787 480.944 323.653 483.398 326.16C485.851 328.667 487.078 332 487.078 336.16C487.078 338.72 486.624 341.04 485.718 343.12C484.864 345.2 483.611 346.96 481.958 348.4C480.304 349.84 478.278 350.96 475.878 351.76C473.531 352.56 470.864 352.96 467.878 352.96Z" fill="white"/>
<rect x="586" y="236" width="172" height="172" rx="32" fill="#005E60"/>
<path d="M652.604 296.16H671.324C674.791 296.16 677.937 296.747 680.764 297.92C683.591 299.093 685.991 300.853 687.964 303.2C689.991 305.493 691.537 308.4 692.604 311.92C693.671 315.387 694.204 319.44 694.204 324.08C694.204 328.72 693.671 332.8 692.604 336.32C691.537 339.787 689.991 342.693 687.964 345.04C685.991 347.333 683.591 349.067 680.764 350.24C677.937 351.413 674.791 352 671.324 352H652.604V296.16ZM671.324 346.08C673.617 346.08 675.724 345.707 677.644 344.96C679.564 344.16 681.217 343.013 682.604 341.52C683.991 340.027 685.057 338.213 685.804 336.08C686.604 333.893 687.004 331.413 687.004 328.64V319.52C687.004 316.747 686.604 314.293 685.804 312.16C685.057 309.973 683.991 308.133 682.604 306.64C681.217 305.147 679.564 304.027 677.644 303.28C675.724 302.48 673.617 302.08 671.324 302.08H659.324V346.08H671.324Z" fill="white"/>
<rect x="790" y="236" width="172" height="172" rx="32" fill="#005E60"/>
<path d="M861.096 352V296.16H894.376V302.08H867.816V320.8H892.056V326.72H867.816V352H861.096Z" fill="white"/>
<rect x="994" y="236" width="172" height="172" rx="32" fill="#005E60"/>
<path d="M1095.79 343.84H1095.55C1094.85 346.453 1093.15 348.64 1090.43 350.4C1087.76 352.107 1084.29 352.96 1080.03 352.96C1076.61 352.96 1073.47 352.347 1070.59 351.12C1067.76 349.84 1065.33 348 1063.31 345.6C1061.28 343.147 1059.68 340.133 1058.51 336.56C1057.39 332.933 1056.83 328.773 1056.83 324.08C1056.83 319.44 1057.39 315.333 1058.51 311.76C1059.63 308.133 1061.23 305.12 1063.31 302.72C1065.39 300.267 1067.89 298.4 1070.83 297.12C1073.76 295.84 1077.01 295.2 1080.59 295.2C1085.6 295.2 1089.79 296.32 1093.15 298.56C1096.51 300.8 1099.09 303.76 1100.91 307.44L1095.39 310.8C1094.11 307.813 1092.19 305.467 1089.63 303.76C1087.12 302.053 1084.11 301.2 1080.59 301.2C1078.13 301.2 1075.89 301.653 1073.87 302.56C1071.84 303.413 1070.08 304.64 1068.59 306.24C1067.15 307.84 1066.03 309.76 1065.23 312C1064.43 314.24 1064.03 316.747 1064.03 319.52V328.56C1064.03 331.333 1064.43 333.867 1065.23 336.16C1066.03 338.4 1067.15 340.32 1068.59 341.92C1070.08 343.52 1071.89 344.773 1074.03 345.68C1076.16 346.533 1078.56 346.96 1081.23 346.96C1083.15 346.96 1084.96 346.72 1086.67 346.24C1088.43 345.707 1089.95 344.933 1091.23 343.92C1092.56 342.907 1093.6 341.653 1094.35 340.16C1095.09 338.613 1095.47 336.8 1095.47 334.72V329.2H1083.15V323.28H1102.03V352H1095.79V343.84Z" fill="white"/>
<rect x="1198" y="236" width="172" height="172" rx="32" fill="#005E60"/>
<path d="M1298.12 326.72H1269.88V352H1263.16V296.16H1269.88V320.8H1298.12V296.16H1304.84V352H1298.12V326.72Z" fill="white"/>
<rect x="1402" y="236" width="172" height="172" rx="32" fill="#005E60"/>
<path d="M1501.37 296.16V337.52C1501.37 339.867 1500.97 342 1500.17 343.92C1499.42 345.84 1498.33 347.467 1496.89 348.8C1495.5 350.133 1493.82 351.173 1491.85 351.92C1489.88 352.613 1487.72 352.96 1485.37 352.96C1481.05 352.96 1477.56 351.813 1474.89 349.52C1472.28 347.173 1470.6 344.08 1469.85 340.24L1475.93 338.8C1476.46 341.2 1477.48 343.173 1478.97 344.72C1480.46 346.213 1482.65 346.96 1485.53 346.96C1488.41 346.96 1490.65 346.08 1492.25 344.32C1493.85 342.56 1494.65 339.893 1494.65 336.32V302.08H1475.45V296.16H1501.37Z" fill="white"/>
<rect x="1606" y="236" width="172" height="172" rx="32" fill="#005E60"/>
<path d="M1688.73 324.56L1680.81 333.36V352H1674.09V296.16H1680.81V325.84H1681.05L1689.05 316.16L1705.93 296.16H1714.17L1693.37 320.08L1715.61 352H1707.29L1688.73 324.56Z" fill="white"/>
<rect x="1810" y="236" width="172" height="172" rx="32" fill="#005E60"/>
<path d="M1883.4 352V296.16H1890.12V346.08H1913.88V352H1883.4Z" fill="white"/>
<rect x="382" y="440" width="172" height="172" rx="32" fill="#005E60"/>
<path d="M488.317 556H447.677V549.92L479.917 506.08H449.357V500.16H487.197V506.24L454.877 550.08H488.317V556Z" fill="white"/>
<rect x="76" y="440" width="274" height="172" rx="32" fill="#003437"/>
<path d="M248.54 524.302C248.332 524.805 247.98 525.234 247.528 525.536C247.075 525.839 246.544 526 246 526H232.25V553.5C232.248 554.958 231.668 556.356 230.637 557.387C229.606 558.418 228.208 558.998 226.75 559H199.25C197.792 558.998 196.394 558.418 195.363 557.387C194.332 556.356 193.752 554.958 193.75 553.5V526H180C179.456 526 178.924 525.838 178.472 525.536C178.02 525.234 177.668 524.805 177.459 524.302C177.251 523.8 177.197 523.247 177.303 522.713C177.409 522.18 177.671 521.69 178.055 521.305L211.055 488.305C211.571 487.79 212.271 487.5 213 487.5C213.729 487.5 214.429 487.79 214.945 488.305L247.945 521.305C248.329 521.69 248.591 522.18 248.697 522.713C248.803 523.247 248.749 523.8 248.54 524.302Z" fill="white"/>
<rect x="1810" y="440" width="274" height="172" rx="32" fill="#003437"/>
<g clip-path="url(#clip0_2572_69)">
<path d="M1980.92 496.666H1933.69C1930.9 496.666 1928.21 497.836 1926.32 499.878L1903.74 524.126C1903.26 524.634 1903 525.304 1903 525.999C1903 526.695 1903.26 527.365 1903.74 527.873L1926.32 552.117C1927.26 553.13 1928.4 553.939 1929.67 554.492C1930.94 555.045 1932.31 555.331 1933.69 555.333H1980.92C1983.59 555.331 1986.16 554.268 1988.05 552.377C1989.94 550.487 1991 547.923 1991 545.249V506.749C1991 504.076 1989.94 501.512 1988.05 499.622C1986.16 497.731 1983.59 496.668 1980.92 496.666ZM1974.44 536.336C1975.1 537.048 1975.45 537.994 1975.42 538.966C1975.38 539.938 1974.96 540.856 1974.25 541.519C1973.54 542.181 1972.59 542.533 1971.62 542.497C1970.65 542.462 1969.73 542.042 1969.07 541.33L1959.84 531.386L1950.6 541.326C1950.28 541.68 1949.88 541.966 1949.45 542.167C1949.01 542.368 1948.53 542.481 1948.05 542.499C1947.57 542.516 1947.09 542.439 1946.64 542.27C1946.19 542.102 1945.77 541.846 1945.42 541.517C1944.71 540.854 1944.29 539.936 1944.25 538.964C1944.22 537.992 1944.57 537.045 1945.23 536.332L1954.83 525.999L1945.24 515.663C1944.57 514.951 1944.22 514.004 1944.26 513.032C1944.29 512.061 1944.71 511.142 1945.42 510.48C1946.14 509.818 1947.08 509.466 1948.05 509.501C1949.03 509.537 1949.94 509.957 1950.61 510.669L1959.84 520.609L1969.07 510.669C1969.75 510.002 1970.65 509.621 1971.6 509.606C1972.54 509.591 1973.46 509.943 1974.15 510.588C1974.85 511.233 1975.27 512.122 1975.32 513.067C1975.37 514.013 1975.06 514.943 1974.44 515.663L1964.84 525.999L1974.44 536.336Z" fill="white"/>
</g>
<rect x="76" y="644" width="274" height="172" rx="32" fill="#003437"/>
<path d="M161.07 754V749.264H173.55V713.296H173.102L161.838 723.792L158.702 720.4L170.542 709.328H178.926V749.264H190.446V754H161.07ZM227.925 754H198.613V748.496L213.205 735.056C215.295 733.136 217.045 731.109 218.453 728.976C219.861 726.8 220.565 724.624 220.565 722.448V721.68C220.565 719.205 219.882 717.2 218.517 715.664C217.151 714.128 215.082 713.36 212.309 713.36C210.943 713.36 209.749 713.552 208.725 713.936C207.701 714.32 206.805 714.853 206.037 715.536C205.311 716.219 204.693 717.029 204.181 717.968C203.711 718.864 203.327 719.845 203.029 720.912L198.229 719.056C198.655 717.733 199.231 716.453 199.957 715.216C200.725 713.936 201.663 712.805 202.773 711.824C203.925 710.843 205.29 710.053 206.869 709.456C208.49 708.859 210.389 708.56 212.565 708.56C214.741 708.56 216.682 708.88 218.389 709.52C220.095 710.16 221.525 711.056 222.677 712.208C223.829 713.36 224.703 714.725 225.301 716.304C225.941 717.883 226.261 719.632 226.261 721.552C226.261 723.301 226.005 724.923 225.493 726.416C225.023 727.909 224.362 729.339 223.509 730.704C222.655 732.027 221.61 733.328 220.373 734.608C219.178 735.888 217.877 737.168 216.469 738.448L204.437 749.264H227.925V754ZM248.892 728.272C251.921 728.272 254.182 727.589 255.676 726.224C257.212 724.816 257.98 723.024 257.98 720.848V720.4C257.98 718.053 257.233 716.304 255.74 715.152C254.289 713.957 252.369 713.36 249.98 713.36C247.676 713.36 245.798 713.872 244.348 714.896C242.897 715.877 241.702 717.221 240.764 718.928L236.796 715.856C237.35 714.96 238.012 714.085 238.78 713.232C239.59 712.336 240.529 711.547 241.595 710.864C242.662 710.181 243.9 709.627 245.308 709.2C246.716 708.773 248.316 708.56 250.108 708.56C251.985 708.56 253.756 708.816 255.42 709.328C257.084 709.797 258.513 710.523 259.708 711.504C260.945 712.443 261.905 713.616 262.588 715.024C263.313 716.432 263.676 718.032 263.676 719.824C263.676 721.275 263.441 722.576 262.972 723.728C262.545 724.88 261.948 725.883 261.18 726.736C260.412 727.589 259.494 728.315 258.428 728.912C257.404 729.509 256.294 729.957 255.1 730.256V730.512C256.294 730.768 257.446 731.195 258.556 731.792C259.708 732.347 260.71 733.093 261.564 734.032C262.46 734.928 263.164 736.037 263.676 737.36C264.23 738.64 264.507 740.112 264.507 741.776C264.507 743.696 264.145 745.467 263.42 747.088C262.694 748.667 261.67 750.032 260.348 751.184C259.025 752.293 257.425 753.168 255.548 753.808C253.67 754.448 251.601 754.768 249.34 754.768C247.42 754.768 245.713 754.555 244.22 754.128C242.726 753.701 241.404 753.125 240.252 752.4C239.1 751.675 238.076 750.864 237.18 749.968C236.326 749.072 235.558 748.133 234.876 747.152L238.908 744.08C239.462 744.976 240.06 745.787 240.7 746.512C241.382 747.237 242.129 747.856 242.94 748.368C243.75 748.88 244.668 749.285 245.692 749.584C246.716 749.84 247.91 749.968 249.276 749.968C252.433 749.968 254.822 749.264 256.444 747.856C258.065 746.405 258.876 744.357 258.876 741.712V741.2C258.876 738.555 258.065 736.528 256.444 735.12C254.822 733.669 252.433 732.944 249.276 732.944H244.028V728.272H248.892Z" fill="white"/>
<rect x="382" y="644" width="172" height="172" rx="32" fill="#003437"/>
<path d="M468 746.498C472.374 746.493 476.568 744.754 479.661 741.661C482.754 738.568 484.495 734.375 484.5 730.001V707.998C484.5 703.622 482.762 699.425 479.667 696.331C476.573 693.236 472.376 691.498 468 691.498C463.624 691.498 459.427 693.236 456.333 696.331C453.238 699.425 451.5 703.622 451.5 707.998V729.998C451.505 734.373 453.245 738.567 456.338 741.66C459.431 744.753 463.625 746.493 468 746.498Z" fill="white"/>
<path d="M492.899 730.018C492.175 729.945 491.452 730.159 490.884 730.614C490.317 731.069 489.951 731.729 489.864 732.451C489.26 737.828 486.697 742.794 482.663 746.4C478.629 750.006 473.408 751.999 467.997 751.999C462.586 751.999 457.366 750.005 453.332 746.398C449.299 742.792 446.736 737.825 446.133 732.448C446.044 731.727 445.677 731.07 445.11 730.616C444.543 730.161 443.821 729.947 443.098 730.018C442.373 730.098 441.709 730.464 441.253 731.033C440.797 731.603 440.585 732.33 440.665 733.055C441.365 739.296 444.19 745.105 448.666 749.51C453.143 753.914 458.997 756.644 465.248 757.243V765.749C465.248 766.478 465.538 767.178 466.054 767.694C466.57 768.209 467.269 768.499 467.998 768.499C468.728 768.499 469.427 768.209 469.943 767.694C470.459 767.178 470.748 766.478 470.748 765.749V757.243C477 756.646 482.856 753.915 487.333 749.51C491.81 745.105 494.634 739.294 495.332 733.053C495.411 732.327 495.2 731.601 494.744 731.031C494.287 730.462 493.624 730.098 492.899 730.018Z" fill="white"/>
<rect x="1606" y="644" width="172" height="172" rx="32" fill="#003437"/>
<path d="M1691.98 760.96C1690.27 760.96 1689.02 760.533 1688.22 759.68C1687.47 758.827 1687.1 757.707 1687.1 756.32V755.28C1687.1 753.893 1687.47 752.773 1688.22 751.92C1689.02 751.067 1690.27 750.64 1691.98 750.64C1693.69 750.64 1694.91 751.067 1695.66 751.92C1696.46 752.773 1696.86 753.893 1696.86 755.28V756.32C1696.86 757.707 1696.46 758.827 1695.66 759.68C1694.91 760.533 1693.69 760.96 1691.98 760.96Z" fill="white"/>
<rect x="1810" y="644" width="274" height="172" rx="32" fill="#003437"/>
<mask id="mask0_2572_69" style="mask-type:luminance" maskUnits="userSpaceOnUse" x="1902" y="686" width="89" height="88">
<path d="M1902.5 686H1990.82V774H1902.5V686Z" fill="white"/>
</mask>
<g mask="url(#mask0_2572_69)">
<path d="M1988.98 700.666C1988.49 700.666 1988.02 700.859 1987.68 701.203C1987.33 701.547 1987.14 702.013 1987.14 702.499V737.333H1928.26V720.833C1928.26 720.484 1928.16 720.142 1927.97 719.848C1927.79 719.553 1927.52 719.318 1927.2 719.17C1926.88 719.022 1926.53 718.967 1926.18 719.011C1925.84 719.056 1925.51 719.198 1925.24 719.421L1903.16 737.754C1902.95 737.926 1902.79 738.142 1902.67 738.385C1902.56 738.628 1902.5 738.894 1902.5 739.162C1902.5 739.431 1902.56 739.696 1902.67 739.94C1902.79 740.183 1902.95 740.398 1903.16 740.57L1925.24 758.904C1925.51 759.125 1925.84 759.267 1926.18 759.311C1926.53 759.356 1926.88 759.302 1927.2 759.157C1927.52 759.009 1927.78 758.774 1927.97 758.48C1928.16 758.186 1928.26 757.844 1928.26 757.496V740.996H1988.98C1989.47 740.996 1989.94 740.803 1990.28 740.459C1990.63 740.115 1990.82 739.649 1990.82 739.162V702.496C1990.82 702.01 1990.62 701.545 1990.28 701.202C1989.93 700.859 1989.47 700.666 1988.98 700.666Z" fill="white"/>
</g>
<rect x="586" y="644" width="988" height="172" rx="32" fill="#005E60"/>
<path d="M1027.98 748.576C1025.68 748.576 1023.74 748.144 1022.17 747.28C1020.64 746.384 1019.31 745.2 1018.19 743.728L1020.92 741.52C1021.88 742.736 1022.96 743.68 1024.14 744.352C1025.32 744.992 1026.7 745.312 1028.27 745.312C1029.9 745.312 1031.16 744.96 1032.06 744.256C1032.99 743.552 1033.45 742.56 1033.45 741.28C1033.45 740.32 1033.13 739.504 1032.49 738.832C1031.88 738.128 1030.76 737.648 1029.13 737.392L1027.16 737.104C1026.01 736.944 1024.96 736.704 1024 736.384C1023.04 736.032 1022.19 735.584 1021.45 735.04C1020.75 734.464 1020.19 733.76 1019.77 732.928C1019.39 732.096 1019.2 731.104 1019.2 729.952C1019.2 728.736 1019.42 727.68 1019.87 726.784C1020.32 725.856 1020.92 725.088 1021.69 724.48C1022.49 723.872 1023.44 723.424 1024.52 723.136C1025.61 722.816 1026.78 722.656 1028.03 722.656C1030.04 722.656 1031.72 723.008 1033.07 723.712C1034.44 724.416 1035.64 725.392 1036.67 726.64L1034.12 728.944C1033.58 728.176 1032.78 727.488 1031.72 726.88C1030.67 726.24 1029.34 725.92 1027.74 725.92C1026.14 725.92 1024.92 726.272 1024.09 726.976C1023.29 727.648 1022.89 728.576 1022.89 729.76C1022.89 730.976 1023.29 731.856 1024.09 732.4C1024.92 732.944 1026.11 733.344 1027.64 733.6L1029.56 733.888C1032.32 734.304 1034.27 735.104 1035.42 736.288C1036.57 737.44 1037.15 738.96 1037.15 740.848C1037.15 743.248 1036.33 745.136 1034.7 746.512C1033.07 747.888 1030.83 748.576 1027.98 748.576ZM1043.93 723.232H1047.77V727.264H1047.96C1048.6 725.696 1049.53 724.544 1050.75 723.808C1052 723.04 1053.48 722.656 1055.21 722.656C1056.75 722.656 1058.14 722.96 1059.39 723.568C1060.64 724.176 1061.69 725.04 1062.56 726.16C1063.45 727.28 1064.12 728.64 1064.57 730.24C1065.05 731.84 1065.29 733.632 1065.29 735.616C1065.29 737.6 1065.05 739.392 1064.57 740.992C1064.12 742.592 1063.45 743.952 1062.56 745.072C1061.69 746.192 1060.64 747.056 1059.39 747.664C1058.14 748.272 1056.75 748.576 1055.21 748.576C1051.85 748.576 1049.44 747.04 1047.96 743.968H1047.77V757.6H1043.93V723.232ZM1054.16 745.12C1056.33 745.12 1058.04 744.448 1059.29 743.104C1060.54 741.728 1061.16 739.936 1061.16 737.728V733.504C1061.16 731.296 1060.54 729.52 1059.29 728.176C1058.04 726.8 1056.33 726.112 1054.16 726.112C1053.29 726.112 1052.46 726.24 1051.66 726.496C1050.89 726.72 1050.22 727.04 1049.64 727.456C1049.07 727.872 1048.6 728.384 1048.25 728.992C1047.93 729.568 1047.77 730.192 1047.77 730.864V740.08C1047.77 740.88 1047.93 741.6 1048.25 742.24C1048.6 742.848 1049.07 743.376 1049.64 743.824C1050.22 744.24 1050.89 744.56 1051.66 744.784C1052.46 745.008 1053.29 745.12 1054.16 745.12ZM1089.78 748C1088.34 748 1087.3 747.616 1086.66 746.848C1086.05 746.08 1085.66 745.12 1085.5 743.968H1085.26C1084.72 745.504 1083.82 746.656 1082.58 747.424C1081.33 748.192 1079.84 748.576 1078.11 748.576C1075.49 748.576 1073.44 747.904 1071.97 746.56C1070.53 745.216 1069.81 743.392 1069.81 741.088C1069.81 738.752 1070.66 736.96 1072.35 735.712C1074.08 734.464 1076.75 733.84 1080.37 733.84H1085.26V731.392C1085.26 729.632 1084.78 728.288 1083.82 727.36C1082.86 726.432 1081.39 725.968 1079.41 725.968C1077.9 725.968 1076.64 726.304 1075.62 726.976C1074.62 727.648 1073.79 728.544 1073.12 729.664L1070.82 727.504C1071.49 726.16 1072.56 725.024 1074.03 724.096C1075.5 723.136 1077.36 722.656 1079.6 722.656C1082.61 722.656 1084.94 723.392 1086.61 724.864C1088.27 726.336 1089.1 728.384 1089.1 731.008V744.64H1091.94V748H1089.78ZM1078.74 745.312C1079.7 745.312 1080.58 745.2 1081.38 744.976C1082.18 744.752 1082.86 744.432 1083.44 744.016C1084.02 743.6 1084.46 743.12 1084.78 742.576C1085.1 742.032 1085.26 741.44 1085.26 740.8V736.72H1080.18C1077.97 736.72 1076.35 737.04 1075.33 737.68C1074.34 738.32 1073.84 739.248 1073.84 740.464V741.472C1073.84 742.688 1074.27 743.632 1075.14 744.304C1076.03 744.976 1077.23 745.312 1078.74 745.312ZM1106.63 748.576C1104.9 748.576 1103.35 748.272 1101.98 747.664C1100.6 747.056 1099.43 746.192 1098.47 745.072C1097.54 743.952 1096.82 742.592 1096.31 740.992C1095.83 739.392 1095.59 737.6 1095.59 735.616C1095.59 733.632 1095.83 731.84 1096.31 730.24C1096.82 728.64 1097.54 727.28 1098.47 726.16C1099.43 725.04 1100.6 724.176 1101.98 723.568C1103.35 722.96 1104.9 722.656 1106.63 722.656C1109.1 722.656 1111.06 723.2 1112.54 724.288C1114.04 725.344 1115.16 726.736 1115.9 728.464L1112.68 730.096C1112.23 728.816 1111.5 727.824 1110.47 727.12C1109.45 726.416 1108.17 726.064 1106.63 726.064C1105.48 726.064 1104.47 726.256 1103.61 726.64C1102.74 726.992 1102.02 727.504 1101.45 728.176C1100.87 728.816 1100.44 729.6 1100.15 730.528C1099.86 731.424 1099.72 732.416 1099.72 733.504V737.728C1099.72 739.904 1100.3 741.696 1101.45 743.104C1102.63 744.48 1104.36 745.168 1106.63 745.168C1109.74 745.168 1111.98 743.728 1113.35 740.848L1116.14 742.72C1115.34 744.512 1114.14 745.936 1112.54 746.992C1110.97 748.048 1109 748.576 1106.63 748.576ZM1130.59 748.576C1128.89 748.576 1127.36 748.272 1125.98 747.664C1124.64 747.056 1123.47 746.192 1122.48 745.072C1121.52 743.92 1120.76 742.56 1120.22 740.992C1119.71 739.392 1119.45 737.6 1119.45 735.616C1119.45 733.664 1119.71 731.888 1120.22 730.288C1120.76 728.688 1121.52 727.328 1122.48 726.208C1123.47 725.056 1124.64 724.176 1125.98 723.568C1127.36 722.96 1128.89 722.656 1130.59 722.656C1132.25 722.656 1133.74 722.96 1135.05 723.568C1136.36 724.176 1137.48 725.024 1138.41 726.112C1139.34 727.168 1140.04 728.432 1140.52 729.904C1141.04 731.376 1141.29 732.992 1141.29 734.752V736.576H1123.48V737.728C1123.48 738.784 1123.64 739.776 1123.96 740.704C1124.32 741.6 1124.8 742.384 1125.4 743.056C1126.04 743.728 1126.81 744.256 1127.71 744.64C1128.64 745.024 1129.68 745.216 1130.83 745.216C1132.4 745.216 1133.76 744.848 1134.91 744.112C1136.09 743.376 1137 742.32 1137.64 740.944L1140.38 742.912C1139.58 744.608 1138.33 745.984 1136.64 747.04C1134.94 748.064 1132.92 748.576 1130.59 748.576ZM1130.59 725.872C1129.53 725.872 1128.57 726.064 1127.71 726.448C1126.84 726.8 1126.09 727.312 1125.45 727.984C1124.84 728.656 1124.36 729.456 1124.01 730.384C1123.66 731.28 1123.48 732.272 1123.48 733.36V733.696H1137.16V733.168C1137.16 730.96 1136.56 729.2 1135.34 727.888C1134.16 726.544 1132.57 725.872 1130.59 725.872Z" fill="white"/>
<rect x="586" y="440" width="172" height="172" rx="32" fill="#005E60"/>
<path d="M694.589 556H686.509L671.869 532.56H671.709L657.069 556H649.389L667.629 527.6L649.869 500.16H657.949L671.949 522.4H672.109L686.429 500.16H694.109L676.189 527.36L694.589 556Z" fill="white"/>
<rect x="790" y="440" width="172" height="172" rx="32" fill="#005E60"/>
<path d="M878.276 556.96C871.183 556.96 865.663 554.56 861.716 549.76C857.77 544.907 855.796 537.787 855.796 528.4C855.796 519.013 857.77 511.813 861.716 506.8C865.663 501.733 871.183 499.2 878.276 499.2C882.97 499.2 886.89 500.267 890.036 502.4C893.236 504.533 895.716 507.547 897.476 511.44L892.036 514.72C890.916 511.84 889.21 509.547 886.916 507.84C884.623 506.08 881.743 505.2 878.276 505.2C875.876 505.2 873.716 505.653 871.796 506.56C869.93 507.467 868.33 508.773 866.996 510.48C865.716 512.133 864.73 514.133 864.036 516.48C863.343 518.773 862.996 521.36 862.996 524.24V532.56C862.996 538.32 864.33 542.827 866.996 546.08C869.663 549.333 873.423 550.96 878.276 550.96C881.85 550.96 884.836 550.053 887.236 548.24C889.636 546.373 891.396 543.92 892.516 540.88L897.876 544.24C896.116 548.187 893.583 551.307 890.276 553.6C886.97 555.84 882.97 556.96 878.276 556.96Z" fill="white"/>
<rect x="994" y="440" width="172" height="172" rx="32" fill="#005E60"/>
<path d="M1075.79 556L1057.23 500.16H1064.43L1073.63 528.32L1079.79 549.28H1080.19L1086.51 528.32L1095.79 500.16H1102.75L1083.95 556H1075.79Z" fill="white"/>
<rect x="1198" y="440" width="172" height="172" rx="32" fill="#005E60"/>
<path d="M1265.31 500.16H1288.27C1292.91 500.16 1296.53 501.467 1299.15 504.08C1301.81 506.693 1303.15 510.187 1303.15 514.56C1303.15 516.64 1302.85 518.4 1302.27 519.84C1301.68 521.28 1300.93 522.48 1300.03 523.44C1299.12 524.347 1298.13 525.04 1297.07 525.52C1296 525.947 1295.01 526.24 1294.11 526.4V526.88C1295.12 526.933 1296.24 527.2 1297.47 527.68C1298.75 528.16 1299.95 528.933 1301.07 530C1302.19 531.013 1303.12 532.347 1303.87 534C1304.67 535.6 1305.07 537.547 1305.07 539.84C1305.07 542.133 1304.69 544.267 1303.95 546.24C1303.25 548.213 1302.27 549.92 1300.99 551.36C1299.71 552.8 1298.19 553.947 1296.43 554.8C1294.67 555.6 1292.75 556 1290.67 556H1265.31V500.16ZM1272.03 550.08H1288.59C1291.47 550.08 1293.73 549.36 1295.39 547.92C1297.04 546.427 1297.87 544.267 1297.87 541.44V538.72C1297.87 535.893 1297.04 533.76 1295.39 532.32C1293.73 530.827 1291.47 530.08 1288.59 530.08H1272.03V550.08ZM1272.03 524.32H1287.47C1290.13 524.32 1292.21 523.653 1293.71 522.32C1295.2 520.987 1295.95 519.067 1295.95 516.56V513.84C1295.95 511.333 1295.2 509.413 1293.71 508.08C1292.21 506.747 1290.13 506.08 1287.47 506.08H1272.03V524.32Z" fill="white"/>
<rect x="1402" y="440" width="172" height="172" rx="32" fill="#005E60"/>
<path d="M1480.68 521.92L1473.96 509.52H1473.72V556H1467.16V500.16H1474.92L1495.32 534.24L1502.04 546.64H1502.28V500.16H1508.84V556H1501.08L1480.68 521.92Z" fill="white"/>
<rect x="1606" y="440" width="172" height="172" rx="32" fill="#005E60"/>
<path d="M1710.5 508.96H1710.1L1705.38 518.32L1692.02 542.64L1678.66 518.32L1673.94 508.96H1673.54V556H1666.98V500.16H1675.94L1691.94 530.24H1692.34L1708.42 500.16H1717.06V556H1710.5V508.96Z" fill="white"/>
<defs>
<clipPath id="clip0_2572_69">
<rect width="88" height="88" fill="white" transform="translate(1903 482)"/>
</clipPath>
</defs>
</svg>
