<svg width="1640" height="1776" viewBox="0 0 1640 1776" fill="none" xmlns="http://www.w3.org/2000/svg">
<rect x="2" y="2" width="1636" height="1772" rx="26" fill="#004F53" stroke="#005E60" stroke-width="4"/>
<mask id="path-2-inside-1_2576_72" fill="white">
<path d="M4 172H1636V332H4V172Z"/>
</mask>
<path d="M4 172H1636V332H4V172Z" fill="#004F53"/>
<path d="M1636 332V328H4V332V336H1636V332Z" fill="#005E60" mask="url(#path-2-inside-1_2576_72)"/>
<path d="M117.3 196L105.188 225.935H80.0312L91.2119 196H117.3Z" fill="#AB322F"/>
<path d="M106.348 220.744H79.1061C77.3172 220.744 75.8672 222.207 75.8672 224.011V241.506H109.587V224.011C109.587 222.206 108.136 220.744 106.348 220.744ZM107.191 227.154H77.6415V225.817C77.6415 224.362 78.8108 223.183 80.2533 223.183H104.578C106.021 223.183 107.19 224.362 107.19 225.817V227.154H107.191Z" fill="#F28F0E"/>
<path d="M68.3203 196L80.0339 225.935H105.19L93.7436 196H68.3203Z" fill="#FA352C"/>
<path d="M85.8632 225.935L73.0096 196H71.5547L84.4087 225.935H85.8632Z" fill="#FCE0E0"/>
<path d="M91.3085 225.935L78.4549 196H77L89.854 225.935H91.3085Z" fill="#FCE0E0"/>
<path d="M97.3162 225.935L84.4623 196H83.0078L95.8618 225.935H97.3162Z" fill="#FCE0E0"/>
<path d="M102.637 225.935L89.7826 196H88.3281L101.182 225.935H102.637Z" fill="#FCE0E0"/>
<path d="M128.553 267.659C128.553 247.296 112.186 230.789 91.9954 230.789C71.805 230.789 55.4375 247.296 55.4375 267.659C55.4375 288.021 71.805 304.528 91.9954 304.528C112.186 304.528 128.553 288.021 128.553 267.659Z" fill="#FFB10F"/>
<path d="M121.416 245.715C125.104 251.472 127.245 258.331 127.245 265.695C127.245 286.059 110.876 302.566 90.6861 302.566C78.6368 302.566 67.9498 296.688 61.2891 287.619C67.7994 297.782 79.1305 304.51 92.0205 304.51C112.211 304.51 128.579 288.002 128.579 267.639C128.579 259.428 125.917 251.843 121.416 245.715Z" fill="#FF930F"/>
<path d="M118.667 281.106C126.03 266.253 120.061 248.192 105.333 240.765C90.6057 233.339 72.6971 239.359 65.3334 254.212C57.9696 269.066 63.9391 287.127 78.6667 294.553C93.3942 301.98 111.303 295.96 118.667 281.106Z" fill="#FFDC01"/>
<path d="M88.3693 288.096C89.5347 289.021 89.8451 290.558 89.8451 290.558C89.8451 290.558 88.2666 290.595 87.1012 289.67C85.9359 288.746 85.625 287.209 85.625 287.209C85.625 287.209 87.2035 287.172 88.3693 288.096Z" fill="#FFF375"/>
<path d="M86.9523 290.5C88.3592 290.007 89.8377 290.558 89.8377 290.558C89.8377 290.558 89.0348 291.907 87.6275 292.4C86.2206 292.893 84.7422 292.342 84.7422 292.342C84.7422 292.342 85.545 290.993 86.9523 290.5Z" fill="#FFF375"/>
<path d="M83.8215 286.853C84.848 287.928 84.9428 289.492 84.9428 289.492C84.9428 289.492 83.374 289.313 82.3479 288.238C81.3217 287.163 81.2266 285.599 81.2266 285.599C81.2266 285.599 82.7953 285.778 83.8215 286.853Z" fill="#FFF375"/>
<path d="M82.0926 289.041C83.5546 288.745 84.9427 289.492 84.9427 289.492C84.9427 289.492 83.9602 290.719 82.4982 291.015C81.0362 291.311 79.6484 290.564 79.6484 290.564C79.6484 290.564 80.6305 289.337 82.0926 289.041Z" fill="#FFF375"/>
<path d="M80.2413 285.066C81.0829 286.289 80.9268 287.848 80.9268 287.848C80.9268 287.848 79.4065 287.425 78.5645 286.202C77.7225 284.98 77.8786 283.42 77.8786 283.42C77.8786 283.42 79.3998 283.843 80.2413 285.066Z" fill="#FFF375"/>
<path d="M78.1802 286.956C79.6711 286.894 80.9223 287.85 80.9223 287.85C80.9223 287.85 79.757 288.907 78.2656 288.969C76.7746 289.032 75.5234 288.076 75.5234 288.076C75.5234 288.076 76.6897 287.018 78.1802 286.956Z" fill="#FFF375"/>
<path d="M76.8883 282.345C77.4056 283.734 76.8732 285.21 76.8732 285.21C76.8732 285.21 75.5015 284.433 74.9842 283.044C74.4664 281.655 74.9988 280.18 74.9988 280.18C74.9988 280.18 76.3706 280.956 76.8883 282.345Z" fill="#FFF375"/>
<path d="M74.4366 283.682C75.8982 283.98 76.8785 285.209 76.8785 285.209C76.8785 285.209 75.489 285.954 74.0274 285.656C72.5658 285.357 71.5859 284.128 71.5859 284.128C71.5859 284.128 72.975 283.384 74.4366 283.682Z" fill="#FFF375"/>
<path d="M74.3679 279.194C74.5423 280.665 73.6745 281.974 73.6745 281.974C73.6745 281.974 72.5252 280.9 72.3513 279.429C72.1769 277.958 73.0447 276.648 73.0447 276.648C73.0447 276.648 74.1945 277.723 74.3679 279.194Z" fill="#FFF375"/>
<path d="M71.666 279.921C73.0159 280.552 73.6773 281.975 73.6773 281.975C73.6773 281.975 72.1503 282.375 70.8004 281.743C69.4509 281.113 68.7891 279.689 68.7891 279.689C68.7891 279.689 70.3165 279.29 71.666 279.921Z" fill="#FFF375"/>
<path d="M72.2069 275.226C72.0828 276.701 70.9703 277.814 70.9703 277.814C70.9703 277.814 70.0594 276.534 70.1835 275.058C70.3076 273.583 71.4196 272.47 71.4196 272.47C71.4196 272.47 72.331 273.75 72.2069 275.226Z" fill="#FFF375"/>
<path d="M69.4056 275.404C70.6021 276.289 70.9655 277.815 70.9655 277.815C70.9655 277.815 69.3892 277.905 68.1927 277.02C66.9966 276.135 66.6328 274.61 66.6328 274.61C66.6328 274.61 68.2092 274.52 69.4056 275.404Z" fill="#FFF375"/>
<path d="M71.0892 271.443C70.7311 272.88 69.4555 273.804 69.4555 273.804C69.4555 273.804 68.7603 272.397 69.1179 270.959C69.4764 269.522 70.7516 268.598 70.7516 268.598C70.7516 268.598 71.4468 270.005 71.0892 271.443Z" fill="#FFF375"/>
<path d="M68.2989 271.18C69.3393 272.241 69.4549 273.804 69.4549 273.804C69.4549 273.804 67.8839 273.646 66.8435 272.585C65.8031 271.523 65.6875 269.96 65.6875 269.96C65.6875 269.96 67.2585 270.118 68.2989 271.18Z" fill="#FFF375"/>
<path d="M70.9744 267.227C70.2761 268.536 68.8123 269.124 68.8123 269.124C68.8123 269.124 68.4823 267.591 69.1806 266.283C69.8794 264.975 71.3427 264.386 71.3427 264.386C71.3427 264.386 71.6736 265.919 70.9744 267.227Z" fill="#FFF375"/>
<path d="M68.3293 266.299C69.0788 267.579 68.8083 269.124 68.8083 269.124C68.8083 269.124 67.3232 268.592 66.5737 267.312C65.8242 266.031 66.0942 264.487 66.0942 264.487C66.0942 264.487 67.5794 265.018 68.3293 266.299Z" fill="#FFF375"/>
<path d="M71.7149 262.971C70.7257 264.08 69.1641 264.311 69.1641 264.311C69.1641 264.311 69.2059 262.744 70.1951 261.635C71.1843 260.526 72.7459 260.296 72.7459 260.296C72.7459 260.296 72.7046 261.862 71.7149 262.971Z" fill="#FFF375"/>
<path d="M69.3671 261.454C69.7928 262.873 69.1643 264.311 69.1643 264.311C69.1643 264.311 67.8464 263.448 67.4212 262.028C66.9959 260.609 67.624 259.171 67.624 259.171C67.624 259.171 68.9419 260.034 69.3671 261.454Z" fill="#FFF375"/>
<path d="M73.2446 259.474C72.0268 260.33 70.4531 260.201 70.4531 260.201C70.4531 260.201 70.8534 258.685 72.0712 257.829C73.2891 256.973 74.8627 257.102 74.8627 257.102C74.8627 257.102 74.462 258.618 73.2446 259.474Z" fill="#FFF375"/>
<path d="M71.3062 257.465C71.3942 258.943 70.4526 260.201 70.4526 260.201C70.4526 260.201 69.3678 259.062 69.2792 257.584C69.1912 256.106 70.1333 254.848 70.1333 254.848C70.1333 254.848 71.2181 255.987 71.3062 257.465Z" fill="#FFF375"/>
<path d="M75.1537 256.308C73.8149 256.962 72.2812 256.588 72.2812 256.588C72.2812 256.588 72.9186 255.154 74.257 254.501C75.5963 253.847 77.1295 254.221 77.1295 254.221C77.1295 254.221 76.4921 255.654 75.1537 256.308Z" fill="#FFF375"/>
<path d="M73.5683 254.02C73.4197 255.494 72.289 256.588 72.289 256.588C72.289 256.588 71.3994 255.293 71.548 253.82C71.697 252.346 72.8277 251.252 72.8277 251.252C72.8277 251.252 73.7173 252.547 73.5683 254.02Z" fill="#FFF375"/>
<path d="M96.4607 287.897C95.2949 288.822 94.9844 290.358 94.9844 290.358C94.9844 290.358 96.563 290.395 97.7283 289.47C98.8941 288.545 99.2046 287.009 99.2046 287.009C99.2046 287.009 97.626 286.972 96.4607 287.897Z" fill="#FFF375"/>
<path d="M97.8698 290.301C96.4629 289.808 94.9844 290.358 94.9844 290.358C94.9844 290.358 95.7872 291.708 97.1945 292.201C98.6014 292.694 100.08 292.143 100.08 292.143C100.08 292.143 99.2771 290.793 97.8698 290.301Z" fill="#FFF375"/>
<path d="M100.434 286.853C99.4072 287.928 99.3125 289.492 99.3125 289.492C99.3125 289.492 100.881 289.313 101.907 288.238C102.934 287.163 103.028 285.599 103.028 285.599C103.028 285.599 101.459 285.778 100.434 286.853Z" fill="#FFF375"/>
<path d="M102.163 289.041C100.701 288.745 99.3125 289.492 99.3125 289.492C99.3125 289.492 100.295 290.719 101.757 291.015C103.219 291.311 104.607 290.564 104.607 290.564C104.607 290.564 103.625 289.337 102.163 289.041Z" fill="#FFF375"/>
<path d="M104.009 284.917C103.168 286.14 103.324 287.699 103.324 287.699C103.324 287.699 104.844 287.276 105.686 286.054C106.528 284.831 106.372 283.271 106.372 283.271C106.372 283.271 104.851 283.694 104.009 284.917Z" fill="#FFF375"/>
<path d="M106.062 286.805C104.571 286.742 103.32 287.698 103.32 287.698C103.32 287.698 104.486 288.756 105.977 288.818C107.468 288.881 108.719 287.924 108.719 287.924C108.719 287.924 107.553 286.867 106.062 286.805Z" fill="#FFF375"/>
<path d="M107.242 282.267C106.724 283.656 107.257 285.132 107.257 285.132C107.257 285.132 108.628 284.355 109.146 282.966C109.663 281.577 109.131 280.102 109.131 280.102C109.131 280.102 107.759 280.878 107.242 282.267Z" fill="#FFF375"/>
<path d="M109.699 283.605C108.238 283.904 107.258 285.132 107.258 285.132C107.258 285.132 108.647 285.877 110.108 285.579C111.57 285.28 112.55 284.052 112.55 284.052C112.55 284.052 111.161 283.306 109.699 283.605Z" fill="#FFF375"/>
<path d="M109.906 278.905C109.732 280.376 110.599 281.686 110.599 281.686C110.599 281.686 111.749 280.611 111.923 279.14C112.097 277.669 111.23 276.359 111.23 276.359C111.23 276.359 110.08 277.434 109.906 278.905Z" fill="#FFF375"/>
<path d="M112.613 279.632C111.263 280.263 110.602 281.686 110.602 281.686C110.602 281.686 112.129 282.085 113.478 281.454C114.828 280.823 115.49 279.4 115.49 279.4C115.49 279.4 113.963 279.001 112.613 279.632Z" fill="#FFF375"/>
<path d="M111.824 275.153C111.948 276.629 113.061 277.741 113.061 277.741C113.061 277.741 113.972 276.461 113.847 274.986C113.723 273.51 112.611 272.397 112.611 272.397C112.611 272.397 111.7 273.678 111.824 275.153Z" fill="#FFF375"/>
<path d="M114.615 275.331C113.418 276.216 113.055 277.741 113.055 277.741C113.055 277.741 114.631 277.832 115.828 276.947C117.024 276.062 117.387 274.537 117.387 274.537C117.387 274.537 115.811 274.446 114.615 275.331Z" fill="#FFF375"/>
<path d="M112.938 271.362C113.296 272.8 114.572 273.724 114.572 273.724C114.572 273.724 115.267 272.317 114.91 270.879C114.551 269.441 113.276 268.518 113.276 268.518C113.276 268.518 112.58 269.925 112.938 271.362Z" fill="#FFF375"/>
<path d="M115.726 271.1C114.686 272.162 114.57 273.725 114.57 273.725C114.57 273.725 116.141 273.566 117.182 272.505C118.222 271.443 118.338 269.88 118.338 269.88C118.338 269.88 116.766 270.039 115.726 271.1Z" fill="#FFF375"/>
<path d="M113.04 267.288C113.739 268.596 115.202 269.185 115.202 269.185C115.202 269.185 115.533 267.652 114.834 266.344C114.135 265.035 112.672 264.446 112.672 264.446C112.672 264.446 112.341 265.98 113.04 267.288Z" fill="#FFF375"/>
<path d="M115.675 266.361C114.926 267.641 115.196 269.185 115.196 269.185C115.196 269.185 116.681 268.653 117.431 267.373C118.181 266.092 117.91 264.548 117.91 264.548C117.91 264.548 116.425 265.08 115.675 266.361Z" fill="#FFF375"/>
<path d="M112.249 263.03C113.239 264.139 114.8 264.37 114.8 264.37C114.8 264.37 114.758 262.803 113.77 261.694C112.78 260.586 111.219 260.354 111.219 260.354C111.219 260.354 111.26 261.921 112.249 263.03Z" fill="#FFF375"/>
<path d="M114.601 261.512C114.176 262.932 114.804 264.37 114.804 264.37C114.804 264.37 116.122 263.506 116.547 262.087C116.972 260.668 116.344 259.229 116.344 259.229C116.344 259.229 115.026 260.093 114.601 261.512Z" fill="#FFF375"/>
<path d="M110.774 259.59C111.992 260.446 113.565 260.317 113.565 260.317C113.565 260.317 113.166 258.802 111.947 257.945C110.73 257.089 109.156 257.218 109.156 257.218C109.156 257.218 109.557 258.734 110.774 259.59Z" fill="#FFF375"/>
<path d="M112.709 257.581C112.621 259.059 113.562 260.318 113.562 260.318C113.562 260.318 114.647 259.179 114.736 257.7C114.824 256.222 113.882 254.964 113.882 254.964C113.882 254.964 112.797 256.103 112.709 257.581Z" fill="#FFF375"/>
<path d="M108.749 256.449C110.088 257.103 111.622 256.729 111.622 256.729C111.622 256.729 110.984 255.295 109.646 254.641C108.307 253.988 106.773 254.361 106.773 254.361C106.773 254.361 107.41 255.795 108.749 256.449Z" fill="#FFF375"/>
<path d="M110.337 254.161C110.486 255.634 111.616 256.728 111.616 256.728C111.616 256.728 112.506 255.433 112.357 253.96C112.208 252.487 111.078 251.393 111.078 251.393C111.078 251.393 110.188 252.687 110.337 254.161Z" fill="#FFF375"/>
<path d="M107.672 251.931C107.611 251.994 107.543 252.057 107.462 252.119C107.439 252.137 107.415 252.149 107.391 252.164C112.071 256.182 115.017 261.998 115.017 268.457C115.017 280.553 104.684 290.395 91.983 290.395C79.2815 290.395 68.9486 280.554 68.9486 268.457C68.9486 262.284 71.6405 256.7 75.9634 252.709C75.8407 252.673 75.7166 252.625 75.592 252.562C71.266 256.609 68.5781 262.239 68.5781 268.456C68.5781 280.748 79.0774 290.747 91.983 290.747C104.888 290.747 115.387 280.748 115.387 268.456C115.387 261.909 112.408 256.013 107.672 251.931Z" fill="#FFF375"/>
<path d="M78.2535 253.509C76.7946 253.821 75.3984 253.089 75.3984 253.089C75.3984 253.089 76.3672 251.851 77.8257 251.539C79.2846 251.227 80.6807 251.96 80.6807 251.96C80.6807 251.96 79.7124 253.197 78.2535 253.509Z" fill="#FFF375"/>
<path d="M77.273 250.906C76.7686 252.299 75.4044 253.089 75.4044 253.089C75.4044 253.089 74.8578 251.619 75.3622 250.225C75.867 248.831 77.2312 248.042 77.2312 248.042C77.2312 248.042 77.7774 249.512 77.273 250.906Z" fill="#FFF375"/>
<path d="M105.81 253.509C107.269 253.821 108.666 253.089 108.666 253.089C108.666 253.089 107.696 251.851 106.238 251.539C104.779 251.227 103.383 251.96 103.383 251.96C103.383 251.96 104.352 253.197 105.81 253.509Z" fill="#FFF375"/>
<path d="M106.792 250.906C107.297 252.299 108.661 253.089 108.661 253.089C108.661 253.089 109.207 251.619 108.703 250.225C108.198 248.831 106.834 248.042 106.834 248.042C106.834 248.042 106.288 249.512 106.792 250.906Z" fill="#FFF375"/>
<path d="M90.7076 254.449H95.8494V279.427H89.8185V261.182L85.2171 264.345L82.2891 260.021L90.7076 254.449Z" fill="#FFF375"/>
<mask id="path-64-inside-2_2576_72" fill="white">
<path d="M4 332H1636V492H4V332Z"/>
</mask>
<path d="M4 332H1636V492H4V332Z" fill="#004F53"/>
<path d="M1636 492V488H4V492V496H1636V492Z" fill="#005E60" mask="url(#path-64-inside-2_2576_72)"/>
<path d="M116.298 356L103.712 386.895H77.5703L89.1885 356H116.298Z" fill="#892020"/>
<path d="M104.9 381.539H76.5923C74.7338 381.539 73.2266 383.048 73.2266 384.91V402.967H108.266V384.91C108.266 383.048 106.758 381.539 104.9 381.539ZM105.776 388.154H75.0702V386.774C75.0702 385.273 76.2854 384.056 77.7843 384.056H103.061C104.56 384.056 105.775 385.273 105.775 386.774L105.776 388.154Z" fill="#6B7384"/>
<path d="M65.3906 356L77.5621 386.895H103.703L91.8079 356H65.3906Z" fill="#FA352C"/>
<path d="M82.3833 386.895L69.9617 356H67.9688L80.3903 386.895H82.3833Z" fill="#FF740D"/>
<path d="M88.4775 386.895L76.0559 356H74.0625L86.484 386.895H88.4775Z" fill="#FF740D"/>
<path d="M94.3525 386.895L81.9309 356H79.9375L92.359 386.895H94.3525Z" fill="#FF740D"/>
<path d="M100.665 386.895L88.2434 356H86.25L98.6715 386.895H100.665Z" fill="#FF740D"/>
<path d="M127.977 429.948C127.977 408.932 110.969 391.895 89.9887 391.895C69.0081 391.895 52 408.932 52 429.948C52 450.963 69.0081 468 89.9887 468C110.969 468 127.977 450.963 127.977 429.948Z" fill="#798093"/>
<path d="M90.0096 391.883C89.633 391.883 89.2567 391.888 88.8828 391.899C109.343 392.497 125.746 409.297 125.746 429.936C125.746 450.575 109.343 467.376 88.8828 467.973C89.2572 467.984 89.633 467.99 90.0096 467.99C110.991 467.99 127.999 450.953 127.999 429.936C127.999 408.92 110.991 391.883 90.0096 391.883Z" fill="#6B7384"/>
<path d="M120.704 433.978C122.927 416.984 110.975 401.403 94.0098 399.177C77.0444 396.95 61.4894 408.922 59.2667 425.915C57.044 442.909 68.9954 458.49 85.9607 460.717C102.926 462.943 118.481 450.972 120.704 433.978Z" fill="#9EA8BA"/>
<path d="M89.0439 435.355H98.5226V440.053H81.5078V435.213C84.4848 432.653 91.8906 426.464 91.8906 422.586C91.8906 420.625 90.6052 419.283 88.474 419.283C86.3544 419.283 84.1862 420.133 82.2945 421.102L82.1271 415.928C94.9711 410.835 102.058 418.966 96.0023 427.928C94.5339 430.101 92.2145 432.577 89.0439 435.355Z" fill="#CAD5E5"/>
<path d="M86.2267 451.508C87.4377 452.463 87.7608 454.049 87.7608 454.049C87.7608 454.049 86.12 454.087 84.909 453.132C83.6981 452.178 83.375 450.592 83.375 450.592C83.375 450.592 85.0158 450.554 86.2267 451.508Z" fill="#BAC6D8"/>
<path d="M84.7576 453.989C86.22 453.48 87.7563 454.048 87.7563 454.048C87.7563 454.048 86.9216 455.441 85.4597 455.95C83.9973 456.459 82.4609 455.891 82.4609 455.891C82.4609 455.891 83.2952 454.498 84.7576 453.989Z" fill="#BAC6D8"/>
<path d="M81.5011 450.226C82.5674 451.335 82.6659 452.95 82.6659 452.95C82.6659 452.95 81.0357 452.766 79.9694 451.656C78.9031 450.546 78.8047 448.932 78.8047 448.932C78.8047 448.932 80.4348 449.116 81.5011 450.226Z" fill="#BAC6D8"/>
<path d="M79.7043 452.484C81.2235 452.178 82.6656 452.949 82.6656 452.949C82.6656 452.949 81.6446 454.216 80.1253 454.521C78.6061 454.826 77.1641 454.055 77.1641 454.055C77.1641 454.055 78.1846 452.789 79.7043 452.484Z" fill="#BAC6D8"/>
<path d="M77.7791 448.382C78.6541 449.644 78.4918 451.254 78.4918 451.254C78.4918 451.254 76.9116 450.817 76.0366 449.555C75.1622 448.293 75.3244 446.684 75.3244 446.684C75.3244 446.684 76.9046 447.12 77.7791 448.382Z" fill="#BAC6D8"/>
<path d="M75.6435 450.331C77.1927 450.267 78.4929 451.253 78.4929 451.253C78.4929 451.253 77.2815 452.345 75.7322 452.409C74.1825 452.474 72.8828 451.487 72.8828 451.487C72.8828 451.487 74.0942 450.395 75.6435 450.331Z" fill="#BAC6D8"/>
<path d="M74.3073 445.573C74.8448 447.007 74.2916 448.529 74.2916 448.529C74.2916 448.529 72.8662 447.728 72.3286 446.294C71.7911 444.861 72.3444 443.338 72.3444 443.338C72.3444 443.338 73.7698 444.14 74.3073 445.573Z" fill="#BAC6D8"/>
<path d="M71.7517 446.954C73.27 447.262 74.2887 448.53 74.2887 448.53C74.2887 448.53 72.8448 449.299 71.3265 448.99C69.8077 448.683 68.7891 447.414 68.7891 447.414C68.7891 447.414 70.2329 446.645 71.7517 446.954Z" fill="#BAC6D8"/>
<path d="M71.6742 442.321C71.8554 443.839 70.9541 445.191 70.9541 445.191C70.9541 445.191 69.7598 444.081 69.5786 442.563C69.3979 441.045 70.2992 439.693 70.2992 439.693C70.2992 439.693 71.4935 440.803 71.6742 442.321Z" fill="#BAC6D8"/>
<path d="M68.8649 443.071C70.2672 443.722 70.955 445.191 70.955 445.191C70.955 445.191 69.3678 445.603 67.9655 444.952C66.5627 444.3 65.875 442.832 65.875 442.832C65.875 442.832 67.4622 442.419 68.8649 443.071Z" fill="#BAC6D8"/>
<path d="M69.4349 438.225C69.3059 439.749 68.1504 440.897 68.1504 440.897C68.1504 440.897 67.2034 439.575 67.3324 438.052C67.4613 436.529 68.6172 435.381 68.6172 435.381C68.6172 435.381 69.5638 436.703 69.4349 438.225Z" fill="#BAC6D8"/>
<path d="M66.5298 438.411C67.7731 439.324 68.1511 440.898 68.1511 440.898C68.1511 440.898 66.5126 440.992 65.2698 440.078C64.0265 439.165 63.6484 437.591 63.6484 437.591C63.6484 437.591 65.2869 437.497 66.5298 438.411Z" fill="#BAC6D8"/>
<path d="M68.2795 434.32C67.9074 435.804 66.5819 436.758 66.5819 436.758C66.5819 436.758 65.8594 435.305 66.2315 433.822C66.6036 432.338 67.9291 431.385 67.9291 431.385C67.9291 431.385 68.6516 432.837 68.2795 434.32Z" fill="#BAC6D8"/>
<path d="M65.3776 434.05C66.4587 435.146 66.5788 436.759 66.5788 436.759C66.5788 436.759 64.9468 436.595 63.8653 435.5C62.7847 434.404 62.6641 432.791 62.6641 432.791C62.6641 432.791 64.2965 432.954 65.3776 434.05Z" fill="#BAC6D8"/>
<path d="M68.1482 429.969C67.4221 431.32 65.9015 431.927 65.9015 431.927C65.9015 431.927 65.558 430.345 66.2842 428.995C67.0103 427.645 68.5309 427.037 68.5309 427.037C68.5309 427.037 68.8743 428.619 68.1482 429.969Z" fill="#BAC6D8"/>
<path d="M65.4029 429.013C66.1822 430.335 65.9012 431.928 65.9012 431.928C65.9012 431.928 64.3575 431.379 63.5787 430.058C62.7999 428.737 63.0804 427.143 63.0804 427.143C63.0804 427.143 64.6237 427.692 65.4029 429.013Z" fill="#BAC6D8"/>
<path d="M68.9242 425.578C67.8958 426.722 66.2734 426.96 66.2734 426.96C66.2734 426.96 66.3169 425.343 67.3444 424.199C68.3723 423.055 69.995 422.816 69.995 422.816C69.995 422.816 69.9521 424.433 68.9242 425.578Z" fill="#BAC6D8"/>
<path d="M66.4807 424.012C66.9225 425.477 66.2699 426.961 66.2699 426.961C66.2699 426.961 64.9004 426.07 64.4581 424.605C64.0162 423.14 64.6693 421.656 64.6693 421.656C64.6693 421.656 66.0388 422.547 66.4807 424.012Z" fill="#BAC6D8"/>
<path d="M70.5101 421.969C69.2451 422.852 67.6094 422.72 67.6094 422.72C67.6094 422.72 68.0254 421.155 69.2909 420.272C70.5564 419.388 72.1916 419.521 72.1916 419.521C72.1916 419.521 71.7751 421.086 70.5101 421.969Z" fill="#BAC6D8"/>
<path d="M68.4951 419.894C68.5871 421.42 67.6082 422.718 67.6082 422.718C67.6082 422.718 66.4813 421.543 66.3889 420.017C66.2973 418.492 67.2763 417.193 67.2763 417.193C67.2763 417.193 68.4036 418.368 68.4951 419.894Z" fill="#BAC6D8"/>
<path d="M72.4922 418.702C71.101 419.376 69.5078 418.991 69.5078 418.991C69.5078 418.991 70.1696 417.511 71.5608 416.836C72.952 416.162 74.5457 416.547 74.5457 416.547C74.5457 416.547 73.8838 418.027 72.4922 418.702Z" fill="#BAC6D8"/>
<path d="M70.8354 416.339C70.6811 417.86 69.5062 418.989 69.5062 418.989C69.5062 418.989 68.5818 417.653 68.7361 416.132C68.8905 414.612 70.0654 413.482 70.0654 413.482C70.0654 413.482 70.9898 414.819 70.8354 416.339Z" fill="#BAC6D8"/>
<path d="M94.6356 451.305C93.4246 452.259 93.1016 453.845 93.1016 453.845C93.1016 453.845 94.7423 453.883 95.9533 452.929C97.1642 451.975 97.4873 450.389 97.4873 450.389C97.4873 450.389 95.8465 450.35 94.6356 451.305Z" fill="#BAC6D8"/>
<path d="M96.0998 453.784C94.6379 453.275 93.1016 453.844 93.1016 453.844C93.1016 453.844 93.9363 455.236 95.3982 455.745C96.8606 456.254 98.3964 455.685 98.3964 455.685C98.3964 455.685 97.5622 454.292 96.0998 453.784Z" fill="#BAC6D8"/>
<path d="M98.7663 450.226C97.7 451.335 97.6016 452.95 97.6016 452.95C97.6016 452.95 99.2313 452.766 100.298 451.656C101.364 450.546 101.463 448.932 101.463 448.932C101.463 448.932 99.8326 449.116 98.7663 450.226Z" fill="#BAC6D8"/>
<path d="M100.563 452.484C99.0436 452.178 97.6016 452.949 97.6016 452.949C97.6016 452.949 98.6221 454.216 100.141 454.521C101.661 454.826 103.103 454.055 103.103 454.055C103.103 454.055 102.082 452.789 100.563 452.484Z" fill="#BAC6D8"/>
<path d="M102.482 448.228C101.607 449.49 101.77 451.1 101.77 451.1C101.77 451.1 103.349 450.663 104.224 449.401C105.099 448.139 104.937 446.529 104.937 446.529C104.937 446.529 103.357 446.966 102.482 448.228Z" fill="#BAC6D8"/>
<path d="M104.615 450.177C103.066 450.112 101.766 451.099 101.766 451.099C101.766 451.099 102.977 452.19 104.526 452.255C106.076 452.319 107.376 451.332 107.376 451.332C107.376 451.332 106.164 450.241 104.615 450.177Z" fill="#BAC6D8"/>
<path d="M105.836 445.493C105.299 446.927 105.852 448.449 105.852 448.449C105.852 448.449 107.278 447.648 107.815 446.214C108.353 444.781 107.799 443.258 107.799 443.258C107.799 443.258 106.374 444.06 105.836 445.493Z" fill="#BAC6D8"/>
<path d="M108.389 446.874C106.87 447.182 105.852 448.45 105.852 448.45C105.852 448.45 107.295 449.219 108.814 448.91C110.333 448.602 111.351 447.334 111.351 447.334C111.351 447.334 109.907 446.565 108.389 446.874Z" fill="#BAC6D8"/>
<path d="M108.61 442.024C108.429 443.542 109.33 444.893 109.33 444.893C109.33 444.893 110.524 443.784 110.706 442.266C110.887 440.748 109.985 439.396 109.985 439.396C109.985 439.396 108.791 440.506 108.61 442.024Z" fill="#BAC6D8"/>
<path d="M111.426 442.774C110.024 443.425 109.336 444.894 109.336 444.894C109.336 444.894 110.923 445.307 112.326 444.655C113.728 444.004 114.416 442.535 114.416 442.535C114.416 442.535 112.829 442.122 111.426 442.774Z" fill="#BAC6D8"/>
<path d="M110.59 438.151C110.719 439.674 111.875 440.822 111.875 440.822C111.875 440.822 112.822 439.502 112.693 437.978C112.564 436.455 111.408 435.307 111.408 435.307C111.408 435.307 110.462 436.627 110.59 438.151Z" fill="#BAC6D8"/>
<path d="M113.496 438.334C112.253 439.248 111.875 440.822 111.875 440.822C111.875 440.822 113.513 440.915 114.756 440.002C116 439.089 116.377 437.514 116.377 437.514C116.377 437.514 114.74 437.421 113.496 438.334Z" fill="#BAC6D8"/>
<path d="M111.755 434.238C112.127 435.722 113.453 436.676 113.453 436.676C113.453 436.676 114.175 435.223 113.803 433.74C113.431 432.256 112.106 431.303 112.106 431.303C112.106 431.303 111.383 432.755 111.755 434.238Z" fill="#BAC6D8"/>
<path d="M114.654 433.968C113.573 435.063 113.453 436.677 113.453 436.677C113.453 436.677 115.086 436.513 116.167 435.418C117.248 434.322 117.368 432.709 117.368 432.709C117.368 432.709 115.735 432.872 114.654 433.968Z" fill="#BAC6D8"/>
<path d="M111.854 430.032C112.581 431.382 114.101 431.99 114.101 431.99C114.101 431.99 114.445 430.408 113.719 429.058C112.992 427.707 111.472 427.1 111.472 427.1C111.472 427.1 111.128 428.681 111.854 430.032Z" fill="#BAC6D8"/>
<path d="M114.61 429.075C113.831 430.397 114.112 431.991 114.112 431.991C114.112 431.991 115.656 431.442 116.434 430.12C117.213 428.799 116.932 427.205 116.932 427.205C116.932 427.205 115.388 427.754 114.61 429.075Z" fill="#BAC6D8"/>
<path d="M111.047 425.638C112.076 426.783 113.698 427.021 113.698 427.021C113.698 427.021 113.655 425.404 112.627 424.26C111.599 423.115 109.977 422.877 109.977 422.877C109.977 422.877 110.02 424.494 111.047 425.638Z" fill="#BAC6D8"/>
<path d="M113.489 424.071C113.048 425.536 113.7 427.02 113.7 427.02C113.7 427.02 115.07 426.129 115.512 424.664C115.954 423.199 115.301 421.715 115.301 421.715C115.301 421.715 113.931 422.606 113.489 424.071Z" fill="#BAC6D8"/>
<path d="M109.51 422.088C110.775 422.971 112.41 422.839 112.41 422.839C112.41 422.839 111.994 421.275 110.729 420.391C109.463 419.507 107.828 419.64 107.828 419.64C107.828 419.64 108.244 421.204 109.51 422.088Z" fill="#BAC6D8"/>
<path d="M111.522 420.015C111.43 421.541 112.409 422.84 112.409 422.84C112.409 422.84 113.536 421.664 113.628 420.139C113.719 418.613 112.741 417.314 112.741 417.314C112.741 417.314 111.613 418.489 111.522 420.015Z" fill="#BAC6D8"/>
<path d="M107.405 418.846C108.796 419.521 110.39 419.135 110.39 419.135C110.39 419.135 109.727 417.655 108.336 416.981C106.946 416.306 105.352 416.692 105.352 416.692C105.352 416.692 106.013 418.172 107.405 418.846Z" fill="#BAC6D8"/>
<path d="M109.064 416.486C109.219 418.007 110.394 419.136 110.394 419.136C110.394 419.136 111.318 417.799 111.164 416.279C111.009 414.758 109.834 413.629 109.834 413.629C109.834 413.629 108.91 414.965 109.064 416.486Z" fill="#BAC6D8"/>
<path d="M106.287 414.184C106.224 414.249 106.153 414.314 106.069 414.378C106.045 414.396 106.02 414.409 105.995 414.425C110.858 418.572 113.92 424.574 113.92 431.24C113.92 443.724 103.183 453.881 89.9843 453.881C76.7863 453.881 66.0491 443.724 66.0491 431.24C66.0491 424.869 68.8458 419.106 73.3379 414.988C73.2103 414.95 73.0814 414.9 72.9519 414.835C68.4566 419.012 65.6641 424.823 65.6641 431.24C65.6641 443.925 76.5737 454.246 89.9843 454.246C103.395 454.246 114.305 443.925 114.305 431.24C114.305 424.482 111.208 418.396 106.287 414.184Z" fill="#BAC6D8"/>
<path d="M75.7247 415.812C74.2091 416.134 72.7578 415.378 72.7578 415.378C72.7578 415.378 73.7645 414.101 75.2805 413.779C76.796 413.457 78.2468 414.213 78.2468 414.213C78.2468 414.213 77.2402 415.49 75.7247 415.812Z" fill="#BAC6D8"/>
<path d="M74.6924 413.126C74.1678 414.564 72.7502 415.379 72.7502 415.379C72.7502 415.379 72.1822 413.861 72.7068 412.423C73.2314 410.984 74.6489 410.17 74.6489 410.17C74.6489 410.17 75.2165 411.688 74.6924 413.126Z" fill="#BAC6D8"/>
<path d="M104.35 415.812C105.866 416.134 107.317 415.378 107.317 415.378C107.317 415.378 106.31 414.101 104.794 413.779C103.279 413.457 101.828 414.213 101.828 414.213C101.828 414.213 102.835 415.49 104.35 415.812Z" fill="#BAC6D8"/>
<path d="M105.378 413.126C105.903 414.564 107.321 415.379 107.321 415.379C107.321 415.379 107.889 413.861 107.364 412.423C106.839 410.984 105.422 410.17 105.422 410.17C105.422 410.17 104.854 411.688 105.378 413.126Z" fill="#BAC6D8"/>
<mask id="path-126-inside-3_2576_72" fill="white">
<path d="M4 492H1636V652H4V492Z"/>
</mask>
<path d="M4 492H1636V652H4V492Z" fill="#004F53"/>
<path d="M1636 652V648H4V652V656H1636V652Z" fill="#005E60" mask="url(#path-126-inside-3_2576_72)"/>
<path d="M116.269 516L103.679 546.898H77.5312L89.1529 516H116.269Z" fill="#8E2323"/>
<path d="M104.877 541.541H76.5614C74.7025 541.541 73.1953 543.05 73.1953 544.913V562.971H108.243V544.913C108.243 543.05 106.736 541.541 104.877 541.541ZM105.752 548.157H75.039V546.777C75.039 545.275 76.2545 544.058 77.7538 544.058H103.038C104.537 544.058 105.752 545.275 105.752 546.777V548.157H105.752Z" fill="#C95506"/>
<path d="M65.3516 516L77.5257 546.898H103.674L91.776 516H65.3516Z" fill="#FA352C"/>
<path d="M83.3196 546.898L70.2181 516H68.7109L81.8125 546.898H83.3196Z" fill="#7F0B0B"/>
<path d="M88.1243 546.898L75.0228 516H73.5156L86.6172 546.898H88.1243Z" fill="#7F0B0B"/>
<path d="M93.6003 546.898L80.4989 516H78.9922L92.0932 546.898H93.6003Z" fill="#7F0B0B"/>
<path d="M98.8743 546.898L85.7728 516H84.2656L97.3672 546.898H98.8743Z" fill="#7F0B0B"/>
<path d="M128 589.933C128 568.914 110.987 551.875 90 551.875C69.0132 551.875 52 568.914 52 589.933C52 610.951 69.0132 627.99 90 627.99C110.987 627.99 128 610.951 128 589.933Z" fill="#FFB839"/>
<path d="M116.249 562.447C122.781 569.282 126.795 578.551 126.795 588.759C126.795 609.777 109.782 626.816 88.7953 626.816C78.6027 626.816 69.3477 622.797 62.5234 616.255C69.441 623.493 79.1834 628 89.9775 628C110.964 628 127.977 610.962 127.977 589.943C127.976 579.133 123.476 569.375 116.249 562.447Z" fill="#EA7603"/>
<path d="M120.59 594.905C123.332 577.985 111.859 562.043 94.9645 559.297C78.0701 556.551 62.1517 568.041 59.4099 584.961C56.668 601.881 68.1409 617.824 85.0354 620.57C101.93 623.316 117.848 611.825 120.59 594.905Z" fill="#FF9B50"/>
<g opacity="0.69">
<path d="M86.9306 611.883C88.1418 612.837 88.4646 614.423 88.4646 614.423C88.4646 614.423 86.8237 614.462 85.6125 613.508C84.4012 612.553 84.0781 610.967 84.0781 610.967C84.0781 610.967 85.7188 610.928 86.9306 611.883Z" fill="#FFB448"/>
<path d="M85.4613 614.364C86.9236 613.855 88.4604 614.424 88.4604 614.424C88.4604 614.424 87.6259 615.816 86.1631 616.325C84.7008 616.834 83.1641 616.266 83.1641 616.266C83.1641 616.266 83.9985 614.873 85.4613 614.364Z" fill="#FFB448"/>
<path d="M82.1971 610.599C83.2637 611.709 83.3622 613.323 83.3622 613.323C83.3622 613.323 81.7316 613.138 80.665 612.029C79.5985 610.919 79.5 609.305 79.5 609.305C79.5 609.305 81.1301 609.489 82.1971 610.599Z" fill="#FFB448"/>
<path d="M80.4003 612.859C81.9199 612.553 83.3628 613.325 83.3628 613.325C83.3628 613.325 82.3415 614.591 80.8219 614.896C79.3022 615.202 77.8594 614.431 77.8594 614.431C77.8594 614.431 78.8807 613.164 80.4003 612.859Z" fill="#FFB448"/>
<path d="M78.475 608.755C79.3502 610.018 79.1875 611.628 79.1875 611.628C79.1875 611.628 77.6074 611.191 76.7322 609.929C75.857 608.667 76.0198 607.057 76.0198 607.057C76.0198 607.057 77.6003 607.494 78.475 608.755Z" fill="#FFB448"/>
<path d="M76.3396 610.706C77.8897 610.642 79.1897 611.628 79.1897 611.628C79.1897 611.628 77.9784 612.72 76.4283 612.784C74.8786 612.849 73.5781 611.862 73.5781 611.862C73.5781 611.862 74.7904 610.771 76.3396 610.706Z" fill="#FFB448"/>
<path d="M75.0034 605.948C75.541 607.382 74.9877 608.905 74.9877 608.905C74.9877 608.905 73.5619 608.103 73.0242 606.669C72.4861 605.236 73.04 603.713 73.04 603.713C73.04 603.713 74.4652 604.515 75.0034 605.948Z" fill="#FFB448"/>
<path d="M72.4473 607.329C73.9665 607.637 74.9854 608.905 74.9854 608.905C74.9854 608.905 73.5412 609.674 72.022 609.366C70.5029 609.058 69.4844 607.79 69.4844 607.79C69.4844 607.79 70.9286 607.02 72.4473 607.329Z" fill="#FFB448"/>
<path d="M72.3702 602.694C72.5514 604.212 71.6494 605.564 71.6494 605.564C71.6494 605.564 70.4552 604.454 70.274 602.936C70.0932 601.418 70.9947 600.066 70.9947 600.066C70.9947 600.066 72.1894 601.176 72.3702 602.694Z" fill="#FFB448"/>
<path d="M69.5606 603.444C70.9637 604.095 71.6511 605.564 71.6511 605.564C71.6511 605.564 70.064 605.977 68.6613 605.326C67.2582 604.674 66.5703 603.205 66.5703 603.205C66.5703 603.205 68.1579 602.792 69.5606 603.444Z" fill="#FFB448"/>
<path d="M70.1308 598.6C70.0018 600.123 68.846 601.272 68.846 601.272C68.846 601.272 67.8987 599.951 68.0277 598.427C68.1567 596.904 69.3125 595.756 69.3125 595.756C69.3125 595.756 70.2598 597.077 70.1308 598.6Z" fill="#FFB448"/>
<path d="M67.2258 598.784C68.4694 599.697 68.8476 601.271 68.8476 601.271C68.8476 601.271 67.2086 601.364 65.965 600.451C64.7218 599.538 64.3438 597.964 64.3438 597.964C64.3438 597.964 65.9826 597.87 67.2258 598.784Z" fill="#FFB448"/>
<path d="M68.9675 594.694C68.5953 596.178 67.2695 597.132 67.2695 597.132C67.2695 597.132 66.5468 595.679 66.919 594.195C67.2912 592.711 68.6167 591.758 68.6167 591.758C68.6167 591.758 69.3392 593.211 68.9675 594.694Z" fill="#FFB448"/>
<path d="M66.0735 594.423C67.1549 595.519 67.2752 597.132 67.2752 597.132C67.2752 597.132 65.6422 596.969 64.5609 595.873C63.4795 594.778 63.3594 593.164 63.3594 593.164C63.3594 593.164 64.9922 593.328 66.0735 594.423Z" fill="#FFB448"/>
<path d="M68.8443 590.342C68.118 591.693 66.5966 592.301 66.5966 592.301C66.5966 592.301 66.2535 590.719 66.9798 589.369C67.7061 588.018 69.2271 587.41 69.2271 587.41C69.2271 587.41 69.5701 588.992 68.8443 590.342Z" fill="#FFB448"/>
<path d="M66.099 589.387C66.878 590.708 66.597 592.302 66.597 592.302C66.597 592.302 65.0533 591.753 64.2743 590.431C63.4948 589.109 63.7759 587.516 63.7759 587.516C63.7759 587.516 65.3196 588.065 66.099 589.387Z" fill="#FFB448"/>
<path d="M69.6201 585.951C68.5919 587.095 66.9688 587.334 66.9688 587.334C66.9688 587.334 67.0126 585.717 68.0403 584.572C69.0685 583.428 70.6918 583.189 70.6918 583.189C70.6918 583.189 70.6487 584.806 69.6201 585.951Z" fill="#FFB448"/>
<path d="M67.1762 584.384C67.6186 585.849 66.9654 587.333 66.9654 587.333C66.9654 587.333 65.5955 586.442 65.1535 584.977C64.7116 583.512 65.3644 582.027 65.3644 582.027C65.3644 582.027 66.7342 582.919 67.1762 584.384Z" fill="#FFB448"/>
<path d="M71.2062 582.34C69.9404 583.224 68.3047 583.091 68.3047 583.091C68.3047 583.091 68.7209 581.527 69.9867 580.643C71.2525 579.759 72.8881 579.892 72.8881 579.892C72.8881 579.892 72.4716 581.456 71.2062 582.34Z" fill="#FFB448"/>
<path d="M69.191 580.266C69.283 581.791 68.3038 583.09 68.3038 583.09C68.3038 583.09 67.1762 581.914 67.0842 580.389C66.9922 578.863 67.9718 577.564 67.9718 577.564C67.9718 577.564 69.0995 578.74 69.191 580.266Z" fill="#FFB448"/>
<path d="M73.1888 579.071C71.7972 579.746 70.2031 579.36 70.2031 579.36C70.2031 579.36 70.8657 577.88 72.2572 577.205C73.6488 576.531 75.2424 576.916 75.2424 576.916C75.2424 576.916 74.5808 578.396 73.1888 579.071Z" fill="#FFB448"/>
<path d="M71.5392 576.711C71.3843 578.232 70.2091 579.361 70.2091 579.361C70.2091 579.361 69.2845 578.025 69.4394 576.504C69.5938 574.983 70.769 573.854 70.769 573.854C70.769 573.854 71.6936 575.19 71.5392 576.711Z" fill="#FFB448"/>
<path d="M95.3391 611.678C94.1274 612.633 93.8047 614.219 93.8047 614.219C93.8047 614.219 95.446 614.257 96.6572 613.302C97.8685 612.348 98.1911 610.762 98.1911 610.762C98.1911 610.762 96.5504 610.724 95.3391 611.678Z" fill="#FFB448"/>
<path d="M96.8037 614.159C95.3414 613.65 93.8047 614.218 93.8047 614.218C93.8047 614.218 94.6392 615.611 96.1019 616.12C97.5642 616.629 99.101 616.061 99.101 616.061C99.101 616.061 98.2665 614.667 96.8037 614.159Z" fill="#FFB448"/>
<path d="M99.4624 610.599C98.3953 611.709 98.2969 613.323 98.2969 613.323C98.2969 613.323 99.9274 613.138 100.994 612.029C102.061 610.919 102.159 609.305 102.159 609.305C102.159 609.305 100.529 609.489 99.4624 610.599Z" fill="#FFB448"/>
<path d="M101.259 612.859C99.7399 612.553 98.2969 613.325 98.2969 613.325C98.2969 613.325 99.3182 614.591 100.838 614.896C102.357 615.202 103.8 614.431 103.8 614.431C103.8 614.431 102.779 613.164 101.259 612.859Z" fill="#FFB448"/>
<path d="M103.177 608.601C102.303 609.863 102.465 611.473 102.465 611.473C102.465 611.473 104.045 611.037 104.92 609.774C105.796 608.512 105.633 606.902 105.633 606.902C105.633 606.902 104.052 607.339 103.177 608.601Z" fill="#FFB448"/>
<path d="M105.319 610.552C103.769 610.487 102.469 611.474 102.469 611.474C102.469 611.474 103.68 612.565 105.23 612.63C106.78 612.694 108.08 611.708 108.08 611.708C108.08 611.708 106.868 610.616 105.319 610.552Z" fill="#FFB448"/>
<path d="M106.532 605.866C105.994 607.3 106.548 608.823 106.548 608.823C106.548 608.823 107.974 608.021 108.511 606.587C109.049 605.154 108.496 603.631 108.496 603.631C108.496 603.631 107.07 604.433 106.532 605.866Z" fill="#FFB448"/>
<path d="M109.092 607.247C107.573 607.555 106.555 608.823 106.555 608.823C106.555 608.823 107.999 609.592 109.518 609.284C111.037 608.976 112.056 607.707 112.056 607.707C112.056 607.707 110.611 606.938 109.092 607.247Z" fill="#FFB448"/>
<path d="M109.313 602.397C109.132 603.915 110.034 605.267 110.034 605.267C110.034 605.267 111.228 604.158 111.41 602.639C111.59 601.121 110.689 599.77 110.689 599.77C110.689 599.77 109.494 600.879 109.313 602.397Z" fill="#FFB448"/>
<path d="M112.122 603.147C110.719 603.798 110.031 605.267 110.031 605.267C110.031 605.267 111.619 605.68 113.022 605.028C114.425 604.377 115.112 602.908 115.112 602.908C115.112 602.908 113.526 602.496 112.122 603.147Z" fill="#FFB448"/>
<path d="M111.301 598.524C111.43 600.047 112.586 601.196 112.586 601.196C112.586 601.196 113.533 599.874 113.404 598.351C113.275 596.828 112.119 595.68 112.119 595.68C112.119 595.68 111.172 597.001 111.301 598.524Z" fill="#FFB448"/>
<path d="M114.207 598.707C112.964 599.621 112.586 601.195 112.586 601.195C112.586 601.195 114.224 601.288 115.468 600.375C116.711 599.462 117.089 597.887 117.089 597.887C117.089 597.887 115.451 597.794 114.207 598.707Z" fill="#FFB448"/>
<path d="M112.458 594.61C112.83 596.094 114.156 597.048 114.156 597.048C114.156 597.048 114.879 595.595 114.507 594.111C114.135 592.627 112.809 591.674 112.809 591.674C112.809 591.674 112.086 593.126 112.458 594.61Z" fill="#FFB448"/>
<path d="M115.358 594.339C114.276 595.435 114.156 597.048 114.156 597.048C114.156 597.048 115.789 596.885 116.87 595.789C117.952 594.693 118.072 593.08 118.072 593.08C118.072 593.08 116.439 593.243 115.358 594.339Z" fill="#FFB448"/>
<path d="M112.565 590.404C113.292 591.755 114.813 592.363 114.813 592.363C114.813 592.363 115.156 590.781 114.43 589.431C113.704 588.08 112.183 587.473 112.183 587.473C112.183 587.473 111.839 589.054 112.565 590.404Z" fill="#FFB448"/>
<path d="M115.313 589.448C114.534 590.77 114.815 592.364 114.815 592.364C114.815 592.364 116.359 591.815 117.138 590.493C117.917 589.172 117.636 587.578 117.636 587.578C117.636 587.578 116.092 588.126 115.313 589.448Z" fill="#FFB448"/>
<path d="M111.759 586.009C112.787 587.154 114.41 587.392 114.41 587.392C114.41 587.392 114.367 585.775 113.339 584.631C112.311 583.486 110.688 583.248 110.688 583.248C110.688 583.248 110.731 584.865 111.759 586.009Z" fill="#FFB448"/>
<path d="M114.193 584.444C113.751 585.909 114.403 587.394 114.403 587.394C114.403 587.394 115.773 586.502 116.215 585.037C116.657 583.572 116.004 582.088 116.004 582.088C116.004 582.088 114.635 582.979 114.193 584.444Z" fill="#FFB448"/>
<path d="M110.213 582.459C111.478 583.343 113.115 583.21 113.115 583.21C113.115 583.21 112.698 581.646 111.433 580.762C110.167 579.879 108.531 580.011 108.531 580.011C108.531 580.011 108.947 581.576 110.213 582.459Z" fill="#FFB448"/>
<path d="M112.225 580.387C112.133 581.912 113.113 583.211 113.113 583.211C113.113 583.211 114.24 582.036 114.332 580.51C114.423 578.984 113.444 577.686 113.444 577.686C113.444 577.686 112.316 578.861 112.225 580.387Z" fill="#FFB448"/>
<path d="M108.108 579.216C109.5 579.891 111.094 579.505 111.094 579.505C111.094 579.505 110.431 578.025 109.04 577.35C107.649 576.675 106.055 577.061 106.055 577.061C106.055 577.061 106.717 578.541 108.108 579.216Z" fill="#FFB448"/>
<path d="M109.767 576.855C109.922 578.376 111.097 579.506 111.097 579.506C111.097 579.506 112.022 578.169 111.867 576.648C111.712 575.127 110.538 573.998 110.538 573.998C110.538 573.998 109.613 575.334 109.767 576.855Z" fill="#FFB448"/>
<path d="M106.985 574.555C106.922 574.62 106.851 574.685 106.767 574.749C106.742 574.767 106.718 574.78 106.693 574.796C111.557 578.944 114.619 584.946 114.619 591.613C114.619 604.098 103.88 614.256 90.678 614.256C77.4762 614.256 66.7367 604.098 66.7367 591.613C66.7367 585.242 69.5341 579.477 74.0274 575.359C73.8998 575.321 73.7708 575.271 73.6414 575.207C69.1449 579.384 66.3516 585.195 66.3516 591.613C66.3516 604.299 77.264 614.621 90.678 614.621C104.092 614.621 115.005 604.299 115.005 591.613C115.005 584.854 111.907 578.768 106.985 574.555Z" fill="#FFB448"/>
<path d="M76.4129 576.183C74.8965 576.505 73.4453 575.749 73.4453 575.749C73.4453 575.749 74.4522 574.472 75.9682 574.15C77.4846 573.828 78.9357 574.584 78.9357 574.584C78.9357 574.584 77.9288 575.861 76.4129 576.183Z" fill="#FFB448"/>
<path d="M75.3882 573.495C74.8635 574.934 73.4456 575.748 73.4456 575.748C73.4456 575.748 72.8774 574.231 73.4021 572.792C73.9264 571.354 75.3443 570.539 75.3443 570.539C75.3443 570.539 75.9125 572.057 75.3882 573.495Z" fill="#FFB448"/>
<path d="M105.055 576.183C106.57 576.505 108.022 575.749 108.022 575.749C108.022 575.749 107.015 574.472 105.499 574.15C103.983 573.828 102.531 574.584 102.531 574.584C102.531 574.584 103.539 575.861 105.055 576.183Z" fill="#FFB448"/>
<path d="M106.082 573.495C106.607 574.934 108.024 575.748 108.024 575.748C108.024 575.748 108.592 574.231 108.068 572.792C107.543 571.354 106.125 570.539 106.125 570.539C106.125 570.539 105.557 572.057 106.082 573.495Z" fill="#FFB448"/>
</g>
<path d="M94.6952 586.444C97.7289 587.255 99.6097 589.185 99.6097 592.365C99.6097 599.965 88.9945 601.064 81.8203 599.079L82.1841 593.769C84.9737 595.202 89.4757 595.749 91.7965 594.246C93.6962 593.016 93.4873 590.644 92.1253 589.684C90.6038 588.612 88.252 589.047 86.0431 588.946V584.446H88.8461C94.355 584.446 94.4812 578.669 88.7078 578.669C86.7523 578.669 84.7999 579.085 82.928 579.803L82.6335 575.052C83.8448 574.68 85.0703 574.401 86.3107 574.215C99.9772 572.166 100.497 581.285 98.0262 584.365C97.2708 585.307 96.1603 586 94.6952 586.444Z" fill="#FFB839"/>
<mask id="path-188-inside-4_2576_72" fill="white">
<path d="M4 652H1636V812H4V652Z"/>
</mask>
<path d="M4 652H1636V812H4V652Z" fill="#004F53"/>
<path d="M1636 812V808H4V812V816H1636V812Z" fill="#005E60" mask="url(#path-188-inside-4_2576_72)"/>
<path d="M94.6989 753V745.44H77.0029V739.168L92.5709 713.912H101.699V739.728H106.795V745.44H101.699V753H94.6989ZM83.0509 739.728H94.6989V721.08H94.2509L83.0509 739.728Z" fill="white"/>
<mask id="path-191-inside-5_2576_72" fill="white">
<path d="M4 812H1636V972H4V812Z"/>
</mask>
<path d="M4 812H1636V972H4V812Z" fill="#004F53"/>
<path d="M1636 972V968H4V972V976H1636V972Z" fill="#005E60" mask="url(#path-191-inside-5_2576_72)"/>
<path d="M104.051 880.296H86.4669L85.5709 893.4H85.9629C86.3736 892.579 86.8216 891.813 87.3069 891.104C87.7923 890.395 88.3523 889.797 88.9869 889.312C89.6216 888.827 90.3496 888.453 91.1709 888.192C92.0296 887.893 93.0563 887.744 94.2509 887.744C95.9309 887.744 97.4989 888.024 98.9549 888.584C100.411 889.144 101.662 889.965 102.707 891.048C103.79 892.093 104.63 893.381 105.227 894.912C105.862 896.443 106.179 898.179 106.179 900.12C106.179 902.099 105.862 903.909 105.227 905.552C104.592 907.195 103.659 908.632 102.427 909.864C101.195 911.059 99.6829 911.992 97.8909 912.664C96.0989 913.336 94.0456 913.672 91.7309 913.672C89.9389 913.672 88.3336 913.467 86.9149 913.056C85.4963 912.683 84.2456 912.16 83.1629 911.488C82.0803 910.816 81.1469 910.051 80.3629 909.192C79.5789 908.296 78.8883 907.363 78.2909 906.392L83.6669 902.248C84.1149 902.995 84.5816 903.704 85.0669 904.376C85.5523 905.011 86.1123 905.571 86.7469 906.056C87.4189 906.541 88.1469 906.933 88.9309 907.232C89.7523 907.493 90.7043 907.624 91.7869 907.624C93.9896 907.624 95.6509 907.008 96.7709 905.776C97.9283 904.544 98.5069 902.864 98.5069 900.736V900.288C98.5069 898.272 97.9283 896.685 96.7709 895.528C95.6136 894.371 94.0083 893.792 91.9549 893.792C90.3496 893.792 89.0429 894.109 88.0349 894.744C87.0269 895.341 86.2243 895.995 85.6269 896.704L79.5789 895.864L81.0349 873.912H104.051V880.296Z" fill="white"/>
<mask id="path-194-inside-6_2576_72" fill="white">
<path d="M4 972H1636V1132H4V972Z"/>
</mask>
<path d="M4 972H1636V1132H4V972Z" fill="#004F53"/>
<path d="M1636 1132V1128H4V1132V1136H1636V1132Z" fill="#005E60" mask="url(#path-194-inside-6_2576_72)"/>
<path d="M92.1789 1073.67C89.9389 1073.67 87.9416 1073.32 86.1869 1072.61C84.4323 1071.86 82.9389 1070.83 81.7069 1069.53C80.4749 1068.18 79.5416 1066.58 78.9069 1064.71C78.2723 1062.81 77.9549 1060.68 77.9549 1058.33C77.9549 1055.53 78.3656 1052.9 79.1869 1050.43C80.0456 1047.93 81.1469 1045.65 82.4909 1043.6C83.8349 1041.51 85.3283 1039.66 86.9709 1038.06C88.6509 1036.41 90.3123 1035.03 91.9549 1033.91H101.923C99.6083 1035.55 97.5363 1037.14 95.7069 1038.67C93.9149 1040.2 92.3283 1041.75 90.9469 1043.32C89.6029 1044.89 88.4829 1046.53 87.5869 1048.25C86.7283 1049.93 86.0749 1051.76 85.6269 1053.74L86.0749 1053.85C86.4483 1053.1 86.8776 1052.39 87.3629 1051.72C87.8856 1051.01 88.5016 1050.39 89.2109 1049.87C89.9203 1049.31 90.7416 1048.88 91.6749 1048.58C92.6083 1048.25 93.6909 1048.08 94.9229 1048.08C96.5283 1048.08 98.0216 1048.36 99.4029 1048.92C100.822 1049.48 102.035 1050.3 103.043 1051.38C104.088 1052.43 104.891 1053.7 105.451 1055.19C106.048 1056.69 106.347 1058.35 106.347 1060.18C106.347 1062.15 106.011 1063.97 105.339 1065.61C104.667 1067.25 103.715 1068.67 102.483 1069.86C101.251 1071.06 99.7576 1071.99 98.0029 1072.66C96.2856 1073.34 94.3443 1073.67 92.1789 1073.67ZM92.1789 1067.85C94.2323 1067.85 95.8376 1067.29 96.9949 1066.17C98.1896 1065.01 98.7869 1063.37 98.7869 1061.24V1060.4C98.7869 1058.27 98.1896 1056.65 96.9949 1055.53C95.8376 1054.37 94.2323 1053.79 92.1789 1053.79C90.0883 1053.79 88.4643 1054.37 87.3069 1055.53C86.1496 1056.65 85.5709 1058.27 85.5709 1060.4V1061.24C85.5709 1063.37 86.1496 1065.01 87.3069 1066.17C88.4643 1067.29 90.0883 1067.85 92.1789 1067.85Z" fill="white"/>
<mask id="path-197-inside-7_2576_72" fill="white">
<path d="M4 1132H1636V1292H4V1132Z"/>
</mask>
<path d="M4 1132H1636V1292H4V1132Z" fill="#004F53"/>
<path d="M1636 1292V1288H4V1292V1296H1636V1292Z" fill="#005E60" mask="url(#path-197-inside-7_2576_72)"/>
<path d="M84.6749 1233L98.2829 1199.9H84.7869V1207.07H78.5149V1193.91H105.619V1200.24L92.4029 1233H84.6749Z" fill="white"/>
<mask id="path-200-inside-8_2576_72" fill="white">
<path d="M4 1292H1636V1452H4V1292Z"/>
</mask>
<path d="M4 1292H1636V1452H4V1292Z" fill="#004F53"/>
<path d="M1636 1452V1448H4V1452V1456H1636V1452Z" fill="#005E60" mask="url(#path-200-inside-8_2576_72)"/>
<path d="M92.0109 1393.67C89.7336 1393.67 87.6989 1393.39 85.9069 1392.83C84.1523 1392.23 82.6589 1391.43 81.4269 1390.42C80.2323 1389.42 79.3176 1388.22 78.6829 1386.84C78.0483 1385.46 77.7309 1383.95 77.7309 1382.3C77.7309 1379.77 78.4216 1377.71 79.8029 1376.14C81.2216 1374.54 83.1069 1373.42 85.4589 1372.78V1372.34C83.5176 1371.63 81.9309 1370.53 80.6989 1369.03C79.5043 1367.54 78.9069 1365.65 78.9069 1363.38C78.9069 1361.88 79.1869 1360.52 79.7469 1359.29C80.3443 1358.06 81.2029 1356.99 82.3229 1356.1C83.4429 1355.2 84.8056 1354.51 86.4109 1354.02C88.0536 1353.5 89.9203 1353.24 92.0109 1353.24C94.1016 1353.24 95.9496 1353.5 97.5549 1354.02C99.1976 1354.51 100.579 1355.2 101.699 1356.1C102.819 1356.99 103.659 1358.06 104.219 1359.29C104.816 1360.52 105.115 1361.88 105.115 1363.38C105.115 1365.65 104.499 1367.54 103.267 1369.03C102.072 1370.53 100.504 1371.63 98.5629 1372.34V1372.78C100.915 1373.42 102.782 1374.54 104.163 1376.14C105.582 1377.71 106.291 1379.77 106.291 1382.3C106.291 1383.95 105.974 1385.46 105.339 1386.84C104.704 1388.22 103.771 1389.42 102.539 1390.42C101.344 1391.43 99.8509 1392.23 98.0589 1392.83C96.3043 1393.39 94.2883 1393.67 92.0109 1393.67ZM92.0109 1387.9C94.1389 1387.9 95.7629 1387.42 96.8829 1386.45C98.0403 1385.48 98.6189 1384.11 98.6189 1382.36V1381.18C98.6189 1379.43 98.0403 1378.07 96.8829 1377.1C95.7629 1376.13 94.1389 1375.64 92.0109 1375.64C89.8829 1375.64 88.2403 1376.13 87.0829 1377.1C85.9629 1378.07 85.4029 1379.43 85.4029 1381.18V1382.36C85.4029 1384.11 85.9629 1385.48 87.0829 1386.45C88.2403 1387.42 89.8829 1387.9 92.0109 1387.9ZM92.0109 1370.15C93.9896 1370.15 95.5016 1369.7 96.5469 1368.81C97.5923 1367.91 98.1149 1366.64 98.1149 1365V1364.1C98.1149 1362.5 97.5923 1361.25 96.5469 1360.35C95.5016 1359.46 93.9896 1359.01 92.0109 1359.01C90.0323 1359.01 88.5203 1359.46 87.4749 1360.35C86.4296 1361.25 85.9069 1362.5 85.9069 1364.1V1365C85.9069 1366.64 86.4296 1367.91 87.4749 1368.81C88.5203 1369.7 90.0323 1370.15 92.0109 1370.15Z" fill="white"/>
<mask id="path-203-inside-9_2576_72" fill="white">
<path d="M4 1452H1636V1612H4V1452Z"/>
</mask>
<path d="M4 1452H1636V1612H4V1452Z" fill="#004F53"/>
<path d="M1636 1612V1608H4V1612V1616H1636V1612Z" fill="#005E60" mask="url(#path-203-inside-9_2576_72)"/>
<path d="M106.067 1528.58C106.067 1531.38 105.638 1534.03 104.779 1536.54C103.958 1539 102.875 1541.28 101.531 1543.37C100.187 1545.42 98.6749 1547.27 96.9949 1548.91C95.3523 1550.52 93.7096 1551.88 92.0669 1553H82.0989C84.3763 1551.36 86.4296 1549.77 88.2589 1548.24C90.0883 1546.71 91.6749 1545.16 93.0189 1543.59C94.4003 1542.02 95.5203 1540.4 96.3789 1538.72C97.2749 1537 97.9469 1535.15 98.3949 1533.18L97.9469 1533.06C97.5736 1533.81 97.1256 1534.54 96.6029 1535.25C96.1176 1535.96 95.5203 1536.57 94.8109 1537.1C94.1016 1537.62 93.2803 1538.05 92.3469 1538.38C91.4136 1538.68 90.3309 1538.83 89.0989 1538.83C87.4563 1538.83 85.9443 1538.55 84.5629 1537.99C83.1816 1537.43 81.9683 1536.63 80.9229 1535.58C79.9149 1534.5 79.1123 1533.23 78.5149 1531.78C77.9549 1530.28 77.6749 1528.6 77.6749 1526.74C77.6749 1524.76 78.0109 1522.95 78.6829 1521.3C79.3549 1519.66 80.3069 1518.24 81.5389 1517.05C82.7709 1515.85 84.2456 1514.92 85.9629 1514.25C87.7176 1513.58 89.6776 1513.24 91.8429 1513.24C94.0829 1513.24 96.0803 1513.61 97.8349 1514.36C99.5896 1515.07 101.083 1516.1 102.315 1517.44C103.547 1518.75 104.48 1520.35 105.115 1522.26C105.75 1524.12 106.067 1526.23 106.067 1528.58ZM91.8429 1533.12C93.9336 1533.12 95.5576 1532.56 96.7149 1531.44C97.8723 1530.28 98.4509 1528.64 98.4509 1526.51V1525.67C98.4509 1523.54 97.8723 1521.92 96.7149 1520.8C95.5576 1519.64 93.9336 1519.06 91.8429 1519.06C89.7896 1519.06 88.1656 1519.64 86.9709 1520.8C85.8136 1521.92 85.2349 1523.54 85.2349 1525.67V1526.51C85.2349 1528.64 85.8136 1530.28 86.9709 1531.44C88.1656 1532.56 89.7896 1533.12 91.8429 1533.12Z" fill="white"/>
<path d="M4 1612H1636V1748C1636 1761.25 1625.25 1772 1612 1772H28C14.7452 1772 4 1761.25 4 1748V1612Z" fill="#004F53"/>
<path d="M63.5179 1713V1707.01H74.2699V1679.23H73.7659L65.2539 1689.31L60.6619 1685.45L70.3499 1673.91H81.4939V1707.01H90.4539V1713H63.5179ZM108.8 1713.67C106.299 1713.67 104.133 1713.22 102.304 1712.33C100.475 1711.39 98.9627 1710.07 97.768 1708.35C96.5733 1706.63 95.6773 1704.53 95.08 1702.02C94.52 1699.52 94.24 1696.67 94.24 1693.46C94.24 1690.28 94.52 1687.45 95.08 1684.94C95.6773 1682.41 96.5733 1680.28 97.768 1678.56C98.9627 1676.84 100.475 1675.54 102.304 1674.64C104.133 1673.71 106.299 1673.24 108.8 1673.24C113.765 1673.24 117.424 1675.01 119.776 1678.56C122.165 1682.11 123.36 1687.07 123.36 1693.46C123.36 1699.84 122.165 1704.81 119.776 1708.35C117.424 1711.9 113.765 1713.67 108.8 1713.67ZM108.8 1707.46C111.301 1707.46 113.037 1706.52 114.008 1704.66C115.016 1702.75 115.52 1700.19 115.52 1696.98V1689.93C115.52 1686.72 115.016 1684.18 114.008 1682.31C113.037 1680.41 111.301 1679.46 108.8 1679.46C106.299 1679.46 104.544 1680.41 103.536 1682.31C102.565 1684.18 102.08 1686.72 102.08 1689.93V1696.98C102.08 1700.19 102.565 1702.75 103.536 1704.66C104.544 1706.52 106.299 1707.46 108.8 1707.46Z" fill="white"/>
<path d="M4 28C4 14.7452 14.7452 4 28 4H1612C1625.25 4 1636 14.7452 1636 28V172H4V28Z" fill="#005E60"/>
<path d="M232.049 84.736L226.673 74.816H226.481V112H221.233V67.328H227.441L243.761 94.592L249.137 104.512H249.329V67.328H254.577V112H248.369L232.049 84.736ZM289.971 112C288.051 112 286.665 111.488 285.811 110.464C285.001 109.44 284.489 108.16 284.275 106.624H283.955C283.23 108.672 282.035 110.208 280.371 111.232C278.707 112.256 276.723 112.768 274.419 112.768C270.921 112.768 268.19 111.872 266.227 110.08C264.307 108.288 263.347 105.856 263.347 102.784C263.347 99.6693 264.478 97.28 266.739 95.616C269.043 93.952 272.606 93.12 277.427 93.12H283.955V89.856C283.955 87.5093 283.315 85.7173 282.035 84.48C280.755 83.2427 278.793 82.624 276.147 82.624C274.142 82.624 272.457 83.072 271.091 83.968C269.769 84.864 268.659 86.0587 267.763 87.552L264.691 84.672C265.587 82.88 267.017 81.3653 268.979 80.128C270.942 78.848 273.417 78.208 276.403 78.208C280.414 78.208 283.529 79.1893 285.747 81.152C287.966 83.1147 289.075 85.8453 289.075 89.344V107.52H292.851V112H289.971ZM275.251 108.416C276.531 108.416 277.705 108.267 278.771 107.968C279.838 107.669 280.755 107.243 281.523 106.688C282.291 106.133 282.889 105.493 283.315 104.768C283.742 104.043 283.955 103.253 283.955 102.4V96.96H277.171C274.227 96.96 272.073 97.3867 270.707 98.24C269.385 99.0933 268.723 100.331 268.723 101.952V103.296C268.723 104.917 269.299 106.176 270.451 107.072C271.646 107.968 273.246 108.416 275.251 108.416ZM300.159 112V78.976H305.279V84.352H305.535C305.919 83.4987 306.345 82.7093 306.815 81.984C307.327 81.216 307.924 80.5547 308.607 80C309.332 79.4453 310.164 79.0187 311.103 78.72C312.041 78.3787 313.151 78.208 314.431 78.208C316.607 78.208 318.612 78.7413 320.447 79.808C322.281 80.832 323.647 82.5387 324.543 84.928H324.671C325.268 83.136 326.377 81.5787 327.999 80.256C329.663 78.8907 331.903 78.208 334.719 78.208C338.089 78.208 340.713 79.3173 342.591 81.536C344.511 83.712 345.471 86.8053 345.471 90.816V112H340.351V91.712C340.351 88.768 339.775 86.5493 338.623 85.056C337.471 83.5627 335.636 82.816 333.119 82.816C332.095 82.816 331.113 82.944 330.175 83.2C329.279 83.456 328.468 83.84 327.743 84.352C327.017 84.864 326.441 85.5253 326.015 86.336C325.588 87.104 325.375 88.0213 325.375 89.088V112H320.255V91.712C320.255 88.768 319.679 86.5493 318.527 85.056C317.375 83.5627 315.583 82.816 313.151 82.816C312.127 82.816 311.145 82.944 310.207 83.2C309.268 83.456 308.436 83.84 307.711 84.352C306.985 84.864 306.388 85.5253 305.919 86.336C305.492 87.104 305.279 88.0213 305.279 89.088V112H300.159ZM368.45 112.768C366.188 112.768 364.14 112.363 362.306 111.552C360.514 110.741 358.956 109.589 357.634 108.096C356.354 106.56 355.351 104.747 354.626 102.656C353.943 100.523 353.602 98.1333 353.602 95.488C353.602 92.8853 353.943 90.5173 354.626 88.384C355.351 86.2507 356.354 84.4373 357.634 82.944C358.956 81.408 360.514 80.2347 362.306 79.424C364.14 78.6133 366.188 78.208 368.45 78.208C370.668 78.208 372.652 78.6133 374.402 79.424C376.151 80.2347 377.644 81.3653 378.882 82.816C380.119 84.224 381.058 85.9093 381.698 87.872C382.38 89.8347 382.722 91.9893 382.722 94.336V96.768H358.978V98.304C358.978 99.712 359.191 101.035 359.618 102.272C360.087 103.467 360.727 104.512 361.538 105.408C362.391 106.304 363.415 107.008 364.61 107.52C365.847 108.032 367.234 108.288 368.77 108.288C370.86 108.288 372.674 107.797 374.21 106.816C375.788 105.835 377.004 104.427 377.858 102.592L381.506 105.216C380.439 107.477 378.775 109.312 376.514 110.72C374.252 112.085 371.564 112.768 368.45 112.768ZM368.45 82.496C367.042 82.496 365.762 82.752 364.61 83.264C363.458 83.7333 362.455 84.416 361.602 85.312C360.791 86.208 360.151 87.2747 359.682 88.512C359.212 89.7067 358.978 91.0293 358.978 92.48V92.928H377.218V92.224C377.218 89.28 376.407 86.9333 374.786 85.184C373.207 83.392 371.095 82.496 368.45 82.496Z" fill="white"/>
<path d="M929.696 112.768C924.021 112.768 919.605 110.848 916.448 107.008C913.291 103.125 911.712 97.4293 911.712 89.92C911.712 82.4107 913.291 76.6507 916.448 72.64C919.605 68.5867 924.021 66.56 929.696 66.56C933.451 66.56 936.587 67.4133 939.104 69.12C941.664 70.8267 943.648 73.2373 945.056 76.352L940.704 78.976C939.808 76.672 938.443 74.8373 936.608 73.472C934.773 72.064 932.469 71.36 929.696 71.36C927.776 71.36 926.048 71.7227 924.512 72.448C923.019 73.1733 921.739 74.2187 920.672 75.584C919.648 76.9067 918.859 78.5067 918.304 80.384C917.749 82.2187 917.472 84.288 917.472 86.592V93.248C917.472 97.856 918.539 101.461 920.672 104.064C922.805 106.667 925.813 107.968 929.696 107.968C932.555 107.968 934.944 107.243 936.864 105.792C938.784 104.299 940.192 102.336 941.088 99.904L945.376 102.592C943.968 105.749 941.941 108.245 939.296 110.08C936.651 111.872 933.451 112.768 929.696 112.768ZM955.75 71.232C954.641 71.232 953.83 70.976 953.318 70.464C952.849 69.9093 952.614 69.2053 952.614 68.352V67.52C952.614 66.6667 952.849 65.984 953.318 65.472C953.83 64.9173 954.641 64.64 955.75 64.64C956.859 64.64 957.649 64.9173 958.118 65.472C958.63 65.984 958.886 66.6667 958.886 67.52V68.352C958.886 69.2053 958.63 69.9093 958.118 70.464C957.649 70.976 956.859 71.232 955.75 71.232ZM953.19 78.976H958.31V112H953.19V78.976ZM976.486 112C974.694 112 973.329 111.509 972.39 110.528C971.494 109.504 971.046 108.181 971.046 106.56V83.456H965.606V78.976H968.678C969.787 78.976 970.534 78.7627 970.918 78.336C971.345 77.8667 971.558 77.0773 971.558 75.968V69.824H976.166V78.976H983.398V83.456H976.166V107.52H982.886V112H976.486ZM1011.98 78.976H1017.04L1002.25 119.68C1001.87 120.661 1001.48 121.472 1001.1 122.112C1000.72 122.795 1000.25 123.328 999.692 123.712C999.137 124.096 998.433 124.373 997.58 124.544C996.769 124.715 995.766 124.8 994.572 124.8H991.948V120.32H997.132L999.628 113.28L987.276 78.976H992.396L1000.33 101.44L1001.87 106.816H1002.19L1003.98 101.44L1011.98 78.976Z" fill="white"/>
<path d="M1377.95 112V67.328H1395.74C1399.75 67.328 1402.83 68.48 1404.96 70.784C1407.14 73.0453 1408.22 76.16 1408.22 80.128C1408.22 84.096 1407.14 87.232 1404.96 89.536C1402.83 91.7973 1399.75 92.928 1395.74 92.928H1383.33V112H1377.95ZM1383.33 88.192H1395.74C1397.88 88.192 1399.52 87.6373 1400.67 86.528C1401.87 85.4187 1402.46 83.84 1402.46 81.792V78.464C1402.46 76.416 1401.87 74.8373 1400.67 73.728C1399.52 72.6187 1397.88 72.064 1395.74 72.064H1383.33V88.192ZM1427.48 112.768C1425.26 112.768 1423.24 112.363 1421.4 111.552C1419.57 110.741 1417.99 109.589 1416.67 108.096C1415.39 106.56 1414.38 104.747 1413.66 102.656C1412.93 100.523 1412.57 98.1333 1412.57 95.488C1412.57 92.8853 1412.93 90.5173 1413.66 88.384C1414.38 86.2507 1415.39 84.4373 1416.67 82.944C1417.99 81.408 1419.57 80.2347 1421.4 79.424C1423.24 78.6133 1425.26 78.208 1427.48 78.208C1429.7 78.208 1431.71 78.6133 1433.5 79.424C1435.33 80.2347 1436.91 81.408 1438.23 82.944C1439.56 84.4373 1440.58 86.2507 1441.31 88.384C1442.03 90.5173 1442.39 92.8853 1442.39 95.488C1442.39 98.1333 1442.03 100.523 1441.31 102.656C1440.58 104.747 1439.56 106.56 1438.23 108.096C1436.91 109.589 1435.33 110.741 1433.5 111.552C1431.71 112.363 1429.7 112.768 1427.48 112.768ZM1427.48 108.224C1430.26 108.224 1432.52 107.371 1434.27 105.664C1436.02 103.957 1436.89 101.355 1436.89 97.856V93.12C1436.89 89.6213 1436.02 87.0187 1434.27 85.312C1432.52 83.6053 1430.26 82.752 1427.48 82.752C1424.71 82.752 1422.45 83.6053 1420.7 85.312C1418.95 87.0187 1418.07 89.6213 1418.07 93.12V97.856C1418.07 101.355 1418.95 103.957 1420.7 105.664C1422.45 107.371 1424.71 108.224 1427.48 108.224ZM1453.38 71.232C1452.27 71.232 1451.46 70.976 1450.94 70.464C1450.47 69.9093 1450.24 69.2053 1450.24 68.352V67.52C1450.24 66.6667 1450.47 65.984 1450.94 65.472C1451.46 64.9173 1452.27 64.64 1453.38 64.64C1454.48 64.64 1455.27 64.9173 1455.74 65.472C1456.26 65.984 1456.51 66.6667 1456.51 67.52V68.352C1456.51 69.2053 1456.26 69.9093 1455.74 70.464C1455.27 70.976 1454.48 71.232 1453.38 71.232ZM1450.82 78.976H1455.94V112H1450.82V78.976ZM1466.82 112V78.976H1471.94V84.352H1472.19C1473 82.4747 1474.13 80.9813 1475.58 79.872C1477.08 78.7627 1479.06 78.208 1481.54 78.208C1484.95 78.208 1487.64 79.3173 1489.6 81.536C1491.6 83.712 1492.61 86.8053 1492.61 90.816V112H1487.49V91.712C1487.49 85.7813 1484.99 82.816 1480 82.816C1478.98 82.816 1477.97 82.944 1476.99 83.2C1476.05 83.456 1475.2 83.84 1474.43 84.352C1473.66 84.864 1473.04 85.5253 1472.58 86.336C1472.15 87.104 1471.94 88.0213 1471.94 89.088V112H1466.82ZM1510.49 112C1508.69 112 1507.33 111.509 1506.39 110.528C1505.49 109.504 1505.05 108.181 1505.05 106.56V83.456H1499.61V78.976H1502.68C1503.79 78.976 1504.53 78.7627 1504.92 78.336C1505.34 77.8667 1505.56 77.0773 1505.56 75.968V69.824H1510.17V78.976H1517.4V83.456H1510.17V107.52H1516.89V112H1510.49ZM1535.55 112.768C1532.48 112.768 1529.89 112.192 1527.8 111.04C1525.76 109.845 1523.98 108.267 1522.49 106.304L1526.14 103.36C1527.42 104.981 1528.85 106.24 1530.43 107.136C1532.01 107.989 1533.84 108.416 1535.93 108.416C1538.11 108.416 1539.79 107.947 1540.99 107.008C1542.22 106.069 1542.84 104.747 1542.84 103.04C1542.84 101.76 1542.42 100.672 1541.56 99.776C1540.75 98.8373 1539.26 98.1973 1537.08 97.856L1534.46 97.472C1532.92 97.2587 1531.52 96.9387 1530.24 96.512C1528.96 96.0427 1527.82 95.4453 1526.84 94.72C1525.9 93.952 1525.16 93.0133 1524.6 91.904C1524.09 90.7947 1523.84 89.472 1523.84 87.936C1523.84 86.3147 1524.13 84.9067 1524.73 83.712C1525.33 82.4747 1526.14 81.4507 1527.16 80.64C1528.23 79.8293 1529.49 79.232 1530.94 78.848C1532.39 78.4213 1533.95 78.208 1535.61 78.208C1538.3 78.208 1540.54 78.6773 1542.33 79.616C1544.17 80.5547 1545.77 81.856 1547.13 83.52L1543.74 86.592C1543.01 85.568 1541.95 84.6507 1540.54 83.84C1539.13 82.9867 1537.36 82.56 1535.23 82.56C1533.09 82.56 1531.47 83.0293 1530.36 83.968C1529.3 84.864 1528.76 86.1013 1528.76 87.68C1528.76 89.3013 1529.3 90.4747 1530.36 91.2C1531.47 91.9253 1533.05 92.4587 1535.1 92.8L1537.66 93.184C1541.33 93.7387 1543.93 94.8053 1545.47 96.384C1547 97.92 1547.77 99.9467 1547.77 102.464C1547.77 105.664 1546.68 108.181 1544.51 110.016C1542.33 111.851 1539.34 112.768 1535.55 112.768Z" fill="white"/>
</svg>
